<?xml version="1.0" encoding="UTF-8" standalone="no"?>
<!-- Created with Inkscape (http://www.inkscape.org/) -->

<svg
   xmlns:dc="http://purl.org/dc/elements/1.1/"
   xmlns:cc="http://creativecommons.org/ns#"
   xmlns:rdf="http://www.w3.org/1999/02/22-rdf-syntax-ns#"
   xmlns:svg="http://www.w3.org/2000/svg"
   xmlns="http://www.w3.org/2000/svg"
   xmlns:sodipodi="http://sodipodi.sourceforge.net/DTD/sodipodi-0.dtd"
   xmlns:inkscape="http://www.inkscape.org/namespaces/inkscape"
   width="350"
   height="350"
   viewBox="0 0 350.00001 350.00001"
   id="svg2"
   version="1.1"
   inkscape:version="0.91 r13725"
   sodipodi:docname="knowledge_thumb.svg">
  <defs
     id="defs4" />
  <sodipodi:namedview
     id="base"
     pagecolor="#ffffff"
     bordercolor="#666666"
     borderopacity="1.0"
     inkscape:pageopacity="0.0"
     inkscape:pageshadow="2"
     inkscape:zoom="0.7"
     inkscape:cx="-142.04687"
     inkscape:cy="23.840423"
     inkscape:document-units="px"
     inkscape:current-layer="layer1"
     showgrid="false"
     units="px"
     fit-margin-top="0"
     fit-margin-left="0"
     fit-margin-right="0"
     fit-margin-bottom="0"
     inkscape:window-width="1366"
     inkscape:window-height="721"
     inkscape:window-x="-4"
     inkscape:window-y="-4"
     inkscape:window-maximized="1" />
  <metadata
     id="metadata7">
    <rdf:RDF>
      <cc:Work
         rdf:about="">
        <dc:format>image/svg+xml</dc:format>
        <dc:type
           rdf:resource="http://purl.org/dc/dcmitype/StillImage" />
        <dc:title />
      </cc:Work>
    </rdf:RDF>
  </metadata>
  <g
     inkscape:groupmode="layer"
     id="layer1"
     inkscape:label="bg"
     sodipodi:insensitive="true">
    <rect
       style="fill:#11121f;fill-opacity:0.94117647;stroke:none;stroke-width:3;stroke-miterlimit:4;stroke-dasharray:none"
       id="rect3364"
       width="398.57144"
       height="398.57144"
       x="-14.285714"
       y="-22.857143" />
  </g>
  <g
     inkscape:groupmode="layer"
     id="layer2"
     inkscape:label="text"
     style="display:inline"
     transform="translate(-105.45998,153.52558)">
    <g
       style="font-style:normal;font-weight:normal;font-size:40px;line-height:125%;font-family:sans-serif;letter-spacing:0px;word-spacing:0px;fill:#000000;fill-opacity:1;stroke:none;stroke-width:1px;stroke-linecap:butt;stroke-linejoin:miter;stroke-opacity:1"
       id="text3339"
       transform="translate(25.93344,-228.52558)">
      <path
         d="m 142.95999,244.42034 c -4.74,0 -10.5,-7.44 -15.84,-18.06 0.66,-2.82 9.24,-7.8 13.62,-12.48 2.82,-3.06 3.9,-5.76 3.9,-7.92 0,-2.22 -1.2,-3.54 -3.54,-3.54 -0.66,0 -1.92,0.18 -3.9,0.66 0.18,0.72 0.24,1.5 0.24,2.22 -0.12,4.68 -4.56,9.54 -16.08,17.34 -0.84,0.6 -1.5,1.08 -2.16,1.68 2.16,-7.98 3.78,-17.4 3.9,-18.6 0.06,-0.96 -0.12,-2.04 -0.78,-2.7 -0.66,-0.66 -1.74,-0.84 -2.7,-0.78 -1.92,0.12 -3.9,0.6 -6.3,1.98 0.54,1.32 0.78,2.16 0.66,3.48 -1.26,12.18 -4.5,23.16 -7.68,34.98 -0.6,2.22 -0.84,3.66 -0.84,4.8 0.06,1.68 1.08,2.46 3.36,2.46 2.4,0 5.22,-0.72 6.6,-1.74 -0.12,-0.78 -0.54,-1.38 -0.54,-2.64 0,-2.04 1.26,-7.92 3.72,-18.48 1.38,4.08 5.28,11.58 9.18,17.22 3,4.38 5.52,5.94 8.52,5.94 3.06,0 5.88,-1.98 6.96,-5.4 0.06,-0.06 0.06,-0.24 0,-0.3 -0.06,-0.06 -0.18,-0.12 -0.3,-0.12 z"
         style="font-style:normal;font-variant:normal;font-weight:normal;font-stretch:normal;font-size:60px;font-family:Androgyne;-inkscape-font-specification:Androgyne;text-align:center;text-anchor:middle;fill:#ffffff"
         id="path4181"
         inkscape:connector-curvature="0" />
      <path
         d="m 166.60655,223.72034 c 0.48,0 0.9,0.36 0.9,1.32 0,0.9 -0.84,5.22 -2.4,12 -0.6,2.7 -1.2,4.8 -1.2,6.84 0,3.78 2.22,5.52 5.4,5.52 4.2,0 10.62,-6.48 10.62,-10.92 0,-0.36 -0.12,-0.48 -0.36,-0.48 -0.66,0 -1.68,1.02 -3.6,3 -1.14,1.2 -2.4,1.92 -2.94,2.1 -0.3,-0.54 -0.6,-1.38 -0.6,-2.58 0,-2.16 0.96,-5.28 1.8,-8.22 1.14,-4.68 1.98,-8.94 1.98,-11.64 0,-2.52 -1.86,-4.38 -4.56,-4.38 -5.04,0 -11.58,7.02 -15.3,13.98 1.14,-4.68 2.16,-8.46 2.16,-10.92 0,-2.1 -1.68,-2.88 -3.18,-2.88 -1.56,0 -3.66,0.48 -6.3,1.68 0.48,1.02 0.66,2.4 0.66,3.9 0,3.24 -0.9,8.88 -3.24,16.62 -1.02,3.36 -2.22,6.84 -3.54,10.14 1.92,0.3 3.48,0.48 4.68,0.48 3.06,0 4.14,-1.08 4.98,-3.24 2.82,-7.02 3.72,-9.36 6.66,-14.1 2.82,-4.44 5.7,-8.22 7.38,-8.22 z"
         style="font-style:normal;font-variant:normal;font-weight:normal;font-stretch:normal;font-size:60px;font-family:Androgyne;-inkscape-font-specification:Androgyne;text-align:center;text-anchor:middle;fill:#ffffff"
         id="path4183"
         inkscape:connector-curvature="0" />
      <path
         d="m 185.67718,223.00034 c -3.78,4.44 -5.82,9.66 -5.82,15.48 0,6.96 4.38,11.16 10.98,11.16 10.68,0 19.44,-11.4 19.44,-22.68 0,-6.66 -4.44,-10.68 -10.98,-10.68 -5.22,0 -9.9,2.58 -13.62,6.72 z m 15.66,3.96 c 0,6.9 -3.42,18.3 -8.7,18.3 -2.88,0 -3.96,-2.58 -3.96,-6.12 0,-6.9 3.48,-18.42 8.82,-18.42 2.88,0 3.84,2.7 3.84,6.24 z"
         style="font-style:normal;font-variant:normal;font-weight:normal;font-stretch:normal;font-size:60px;font-family:Androgyne;-inkscape-font-specification:Androgyne;text-align:center;text-anchor:middle;fill:#ffffff"
         id="path4185"
         inkscape:connector-curvature="0" />
      <path
         d="m 237.52655,249.04034 c -1.2,0.36 -1.92,0.3 -3.84,0.36 0.3,-2.88 0.24,-4.38 0.24,-6.3 0,-3.84 -0.12,-7.32 -0.24,-11.1 -2.82,6.06 -6.18,11.46 -9.66,14.94 -2.04,2.04 -4.92,2.4 -7.8,2.4 0.3,-2.04 0.36,-4.74 0.36,-7.92 0,-4.74 -0.18,-10.8 -0.54,-15.06 -0.3,-3.84 -1.2,-6.12 -2.4,-7.92 2.34,-1.32 4.44,-1.98 6.06,-1.98 3.3,0 3.66,2.52 4.02,7.98 0.24,3.12 0.36,7.44 0.36,12.06 l 0,2.82 c 6.9,-8.4 8.7,-14.82 8.7,-19.5 0,-0.6 -0.06,-1.14 -0.24,-1.56 1.92,-0.84 3.66,-1.2 5.1,-1.2 3.18,0 3.24,3.9 3.24,11.46 0,3.48 0,8.1 -0.24,13.14 4.86,-6.48 9,-15.66 9,-21.18 0,-1.44 -0.54,-4.02 -2.1,-5.46 0.72,-0.12 1.74,-0.18 2.22,-0.18 4.38,0 6.9,1.2 6.9,4.56 0,4.92 -10.8,27.48 -19.14,29.64 z"
         style="font-style:normal;font-variant:normal;font-weight:normal;font-stretch:normal;font-size:60px;font-family:Androgyne;-inkscape-font-specification:Androgyne;text-align:center;text-anchor:middle;fill:#ffffff"
         id="path4187"
         inkscape:connector-curvature="0" />
      <path
         d="m 265.56905,243.10034 c -0.3,-0.54 -0.6,-1.32 -0.6,-2.52 0,-1.5 1.08,-6.48 1.5,-8.4 0.18,-0.6 0.3,-1.2 0.42,-1.74 l 0.06,-0.36 c 1.14,-1.5 4.14,-5.58 6.18,-10.26 1.26,-2.94 2.4,-5.94 2.7,-8.46 0.12,-0.78 0.12,-1.5 0.12,-2.1 0,-1.38 -0.18,-2.1 -0.18,-2.16 -0.06,-0.36 -0.24,-0.66 -0.48,-0.9 -1.68,-1.26 -3.36,-1.74 -5.1,-1.86 -0.9,-0.06 -1.98,0.12 -2.94,0.78 -0.96,0.66 -1.74,1.68 -2.04,2.58 -2.82,9.36 -5.46,19.02 -7.68,28.5 -0.42,0.36 -0.6,0.54 -0.54,0.48 -1.8,1.56 -3.18,2.82 -2.94,2.82 0.18,0 1.08,-0.6 3.24,-2.16 -0.06,0.54 -0.12,1.08 -0.24,1.56 -0.36,2.28 -0.6,3.72 -0.54,5.04 0,3.72 2.16,5.46 5.34,5.46 3,0 8.94,-3 11.7,-7.32 1.86,-3 2.34,-4.14 1.86,-4.14 -0.6,0 -2.7,1.68 -5.4,3.66 -1.26,0.9 -2.82,1.44 -4.44,1.5 z m 4.8,-25.38 c 0.78,-2.7 1.68,-5.4 2.7,-8.1 0.12,-0.36 0.3,-0.72 0.48,-1.02 0.3,-0.54 1.08,-0.3 1.08,0.3 0.06,0.6 0,1.38 -0.06,2.22 -0.24,2.28 -1.32,5.16 -2.58,7.98 -1.26,3 -2.88,5.7 -4.2,7.62 0.78,-3 1.62,-6.06 2.58,-9 z"
         style="font-style:normal;font-variant:normal;font-weight:normal;font-stretch:normal;font-size:60px;font-family:Androgyne;-inkscape-font-specification:Androgyne;text-align:center;text-anchor:middle;fill:#ffffff"
         id="path4189"
         inkscape:connector-curvature="0" />
      <path
         d="m 290.65374,244.90034 c -2.28,0.3 -4.44,-0.84 -5.76,-2.76 -0.54,-0.78 -0.72,-2.04 -0.66,-3.48 0.06,-1.56 3.96,-3.3 5.88,-3.96 8.1,-2.88 13.38,-8.1 13.38,-12.18 0.06,-4.08 -2.34,-6.24 -7.38,-6.24 -5.34,0 -10.5,2.58 -14.52,7.38 -4.14,4.5 -6.3,10.56 -6,16.74 0.3,6.18 4.32,9.24 11.34,9.24 3.36,0 6.48,-0.66 9.48,-2.04 1.98,-0.84 3.48,-1.98 4.5,-3.24 1.08,-1.38 1.2,-3.24 0.36,-4.74 -3.12,3 -6.36,4.86 -10.62,5.28 z m -5.22,-13.02 c 1.74,-7.44 4.44,-11.58 7.68,-11.58 2.16,0 2.88,1.8 2.28,3.9 -0.6,2.1 -1.68,4.08 -5.52,6.18 -2.22,1.2 -4.02,1.98 -5.04,4.2 0.36,-1.68 0.6,-2.7 0.6,-2.7 z"
         style="font-style:normal;font-variant:normal;font-weight:normal;font-stretch:normal;font-size:60px;font-family:Androgyne;-inkscape-font-specification:Androgyne;text-align:center;text-anchor:middle;fill:#ffffff"
         id="path4191"
         inkscape:connector-curvature="0" />
      <path
         d="m 335.86186,240.82034 c -1.2,1.14 -2.34,1.98 -2.94,2.1 -0.3,-0.54 -0.66,-1.32 -0.66,-2.52 0,-5.1 2.94,-14.28 5.94,-27.12 0.42,-1.8 0.78,-3.54 0.78,-5.4 0,-2.16 -1.08,-3.36 -3.36,-3.36 -1.74,0 -4.02,0.6 -6.12,1.8 0.48,0.78 0.6,1.68 0.6,2.64 0,2.46 -0.48,5.7 -1.38,9.24 -1.74,-0.96 -3.42,-1.56 -5.76,-1.56 -10.2,0 -18.96,13.74 -18.96,24.96 0,4.8 2.28,7.98 6.06,7.98 4.14,0 9.18,-3.42 14.1,-11.52 -0.18,1.2 -0.36,3.18 -0.36,4.62 0,4.5 1.92,6.54 5.4,6.54 4.26,0 10.62,-6.42 10.62,-10.86 0,-0.36 -0.12,-0.54 -0.36,-0.54 -0.54,0 -1.74,0.96 -3.6,3 z m -13.98,-5.46 c -3,4.98 -5.64,7.92 -7.26,7.92 -1.2,0 -1.8,-1.02 -1.92,-3.12 0,-8.58 4.92,-18.9 9.72,-18.9 2.28,0 4.38,1.62 4.8,3.96 -1.5,3.36 -3.3,6.84 -5.34,10.14 z"
         style="font-style:normal;font-variant:normal;font-weight:normal;font-stretch:normal;font-size:60px;font-family:Androgyne;-inkscape-font-specification:Androgyne;text-align:center;text-anchor:middle;fill:#ffffff"
         id="path4193"
         inkscape:connector-curvature="0" />
      <path
         d="m 367.96936,254.86034 c -1.5,-1.02 -3.48,-1.98 -4.86,-2.52 0.84,-1.68 1.74,-3.96 2.52,-7.08 0.9,-3.6 2.1,-9.12 3.24,-14.94 1.56,-6.78 2.64,-10.14 4.2,-12.48 -1.74,-0.9 -3.3,-1.32 -4.8,-1.32 -1.5,0 -3,0.54 -4.14,1.5 -1.92,-1.14 -4.08,-1.68 -6.36,-1.68 -10.44,0 -18.48,11.1 -18.48,21.9 0,4.74 1.62,8.28 5.94,8.28 4.08,0 9,-2.76 14.16,-10.08 -1.26,6.12 -2.4,10.68 -3.54,13.8 -2.94,-0.6 -6.66,-0.96 -10.02,-0.96 -9.54,0 -11.76,3.54 -11.76,5.94 0,3.12 6.6,6 13.32,6 6.66,0 12.06,-2.82 15.12,-7.86 1.68,0.54 5.04,2.04 4.98,2.04 1.44,0.66 2.46,1.38 2.76,1.38 0,-0.18 -0.54,-0.78 -2.28,-1.92 z m -14.4,-0.36 c -1.38,1.5 -3.18,2.28 -5.4,2.28 -3.18,0 -6.06,-1.62 -7.86,-4.14 -0.12,-0.18 -0.18,-0.36 -0.18,-0.54 0,-1.62 3.48,-1.5 5.76,-1.5 3.18,0 6.72,0.3 9.48,0.9 -0.6,1.32 -1.2,2.34 -1.8,3 z m -3.66,-14.34 c -1.08,0 -1.86,-0.9 -1.86,-2.64 0,-8.22 4.14,-16.68 9.24,-16.68 2.22,0 4.92,1.62 5.16,3.18 -3.18,7.86 -8.88,16.14 -12.54,16.14 z"
         style="font-style:normal;font-variant:normal;font-weight:normal;font-stretch:normal;font-size:60px;font-family:Androgyne;-inkscape-font-specification:Androgyne;text-align:center;text-anchor:middle;fill:#ffffff"
         id="path4195"
         inkscape:connector-curvature="0" />
      <path
         d="m 388.62249,244.90034 c -2.28,0.3 -4.44,-0.84 -5.76,-2.76 -0.54,-0.78 -0.72,-2.04 -0.66,-3.48 0.06,-1.56 3.96,-3.3 5.88,-3.96 8.1,-2.88 13.38,-8.1 13.38,-12.18 0.06,-4.08 -2.34,-6.24 -7.38,-6.24 -5.34,0 -10.5,2.58 -14.52,7.38 -4.14,4.5 -6.3,10.56 -6,16.74 0.3,6.18 4.32,9.24 11.34,9.24 3.36,0 6.48,-0.66 9.48,-2.04 1.98,-0.84 3.48,-1.98 4.5,-3.24 1.08,-1.38 1.2,-3.24 0.36,-4.74 -3.12,3 -6.36,4.86 -10.62,5.28 z m -5.22,-13.02 c 1.74,-7.44 4.44,-11.58 7.68,-11.58 2.16,0 2.88,1.8 2.28,3.9 -0.6,2.1 -1.68,4.08 -5.52,6.18 -2.22,1.2 -4.02,1.98 -5.04,4.2 0.36,-1.68 0.6,-2.7 0.6,-2.7 z"
         style="font-style:normal;font-variant:normal;font-weight:normal;font-stretch:normal;font-size:60px;font-family:Androgyne;-inkscape-font-specification:Androgyne;text-align:center;text-anchor:middle;fill:#ffffff"
         id="path4197"
         inkscape:connector-curvature="0" />
      <path
         d="m 106.45645,287.98048 c -0.22,0.9075 -0.4125,1.925 -0.4125,2.64 0,1.1 0.3575,1.76 1.5675,1.76 0.7425,0 3.3275,-0.4675 3.3275,-1.0725 -0.4125,-0.605 -0.6325,-1.2925 -0.6325,-2.0075 0,-0.7425 0.1925,-1.7325 0.4125,-2.8325 0.9075,-4.5925 2.0625,-9.13 3.135,-13.695 0.0825,-0.495 0.0825,-1.155 -0.275,-1.5675 -0.33,-0.4125 -0.935,-0.55 -1.4575,-0.55 -0.9625,0 -2.365,0.385 -3.4925,1.045 -0.165,0.11 -0.165,0.11 -0.0825,0.385 0.055,0.1375 0.1375,0.2475 0.275,0.275 0.7425,0.3025 0.66,0.99 0.6325,1.5675 -0.055,0.9625 -0.22,2.0625 -0.495,3.3275 -0.6875,3.2175 -1.705,7.535 -2.5025,10.725 z"
         style="font-size:27.5px;text-align:center;text-anchor:middle;fill:#d2344f;fill-opacity:1"
         id="path4199"
         inkscape:connector-curvature="0" />
      <path
         d="m 127.27352,271.61798 c -0.8525,0.055 -1.7325,0.275 -2.805,0.88 0.22,0.4675 0.33,0.825 0.33,1.265 0,0.0825 -0.0275,0.165 -0.0275,0.275 -0.7975,6.2425 -2.09,12.3475 -4.18,17.82 0.88,0.1375 1.5675,0.22 2.1175,0.22 1.4025,0 1.8975,-0.495 2.2825,-1.485 0.9075,-2.2 1.3475,-3.355 2.035,-4.62 1.5125,4.4 2.8325,6.0225 4.455,6.0225 1.705,0 3.8225,-1.87 4.565,-3.7675 0.0275,-0.055 0.055,-0.11 0.055,-0.1925 0,-0.055 -0.0275,-0.11 -0.055,-0.11 -0.0275,0 -0.055,0.0275 -0.11,0.055 -0.9075,0.5775 -1.6775,0.8525 -2.365,0.8525 -1.9525,0 -2.8875,-2.365 -3.5475,-4.3725 -0.0825,-0.275 -0.1375,-0.55 -0.1375,-0.7975 0,-0.11 0.0275,-0.22 0.0275,-0.3025 2.255,-2.585 4.0425,-3.575 5.61,-3.575 -0.1375,-1.7875 -0.6325,-2.695 -1.5675,-2.695 -1.6775,0 -4.125,2.31 -7.425,6.875 1.43,-5.665 2.255,-11.11 2.255,-10.9725 0,-0.88 -0.5225,-1.375 -1.3475,-1.375 -0.055,0 -0.11,0 -0.165,0 z"
         style="font-size:27.5px;text-align:center;text-anchor:middle;fill:#d2344f;fill-opacity:1"
         id="path4201"
         inkscape:connector-curvature="0" />
      <path
         d="m 146.03669,280.36298 c 0.22,0 0.4125,0.165 0.4125,0.605 0,0.4125 -0.385,2.3925 -1.1,5.5 -0.275,1.2375 -0.55,2.2 -0.55,3.135 0,1.7325 1.0175,2.53 2.475,2.53 1.925,0 4.8675,-2.97 4.8675,-5.005 0,-0.165 -0.055,-0.22 -0.165,-0.22 -0.3025,0 -0.77,0.4675 -1.65,1.375 -0.5225,0.55 -1.1,0.88 -1.3475,0.9625 -0.1375,-0.2475 -0.275,-0.6325 -0.275,-1.1825 0,-0.99 0.44,-2.42 0.825,-3.7675 0.5225,-2.145 0.9075,-4.0975 0.9075,-5.335 0,-1.155 -0.8525,-2.0075 -2.09,-2.0075 -2.31,0 -5.3075,3.2175 -7.0125,6.4075 0.5225,-2.145 0.99,-3.8775 0.99,-5.005 0,-0.9625 -0.77,-1.32 -1.4575,-1.32 -0.715,0 -1.6775,0.22 -2.8875,0.77 0.22,0.4675 0.3025,1.1 0.3025,1.7875 0,1.485 -0.4125,4.07 -1.485,7.6175 -0.4675,1.54 -1.0175,3.135 -1.6225,4.6475 0.88,0.1375 1.595,0.22 2.145,0.22 1.4025,0 1.8975,-0.495 2.2825,-1.485 1.2925,-3.2175 1.705,-4.29 3.0525,-6.4625 1.2925,-2.035 2.6125,-3.7675 3.3825,-3.7675 z"
         style="font-size:27.5px;text-align:center;text-anchor:middle;fill:#d2344f;fill-opacity:1"
         id="path4203"
         inkscape:connector-curvature="0" />
      <path
         d="m 154.77739,280.03298 c -1.7325,2.035 -2.6675,4.4275 -2.6675,7.095 0,3.19 2.0075,5.115 5.0325,5.115 4.895,0 8.91,-5.225 8.91,-10.395 0,-3.0525 -2.035,-4.895 -5.0325,-4.895 -2.3925,0 -4.5375,1.1825 -6.2425,3.08 z m 7.1775,1.815 c 0,3.1625 -1.5675,8.3875 -3.9875,8.3875 -1.32,0 -1.815,-1.1825 -1.815,-2.805 0,-3.1625 1.595,-8.4425 4.0425,-8.4425 1.32,0 1.76,1.2375 1.76,2.86 z"
         style="font-size:27.5px;text-align:center;text-anchor:middle;fill:#d2344f;fill-opacity:1"
         id="path4205"
         inkscape:connector-curvature="0" />
      <path
         d="m 178.54169,291.96798 c -0.55,0.165 -0.88,0.1375 -1.76,0.165 0.1375,-1.32 0.11,-2.0075 0.11,-2.8875 0,-1.76 -0.055,-3.355 -0.11,-5.0875 -1.2925,2.7775 -2.8325,5.2525 -4.4275,6.8475 -0.935,0.935 -2.255,1.1 -3.575,1.1 0.1375,-0.935 0.165,-2.1725 0.165,-3.63 0,-2.1725 -0.0825,-4.95 -0.2475,-6.9025 -0.1375,-1.76 -0.55,-2.805 -1.1,-3.63 1.0725,-0.605 2.035,-0.9075 2.7775,-0.9075 1.5125,0 1.6775,1.155 1.8425,3.6575 0.11,1.43 0.165,3.41 0.165,5.5275 l 0,1.2925 c 3.1625,-3.85 3.9875,-6.7925 3.9875,-8.9375 0,-0.275 -0.0275,-0.5225 -0.11,-0.715 0.88,-0.385 1.6775,-0.55 2.3375,-0.55 1.4575,0 1.485,1.7875 1.485,5.2525 0,1.595 0,3.7125 -0.11,6.0225 2.2275,-2.97 4.125,-7.1775 4.125,-9.7075 0,-0.66 -0.2475,-1.8425 -0.9625,-2.5025 0.33,-0.055 0.7975,-0.0825 1.0175,-0.0825 2.0075,0 3.1625,0.55 3.1625,2.09 0,2.255 -4.95,12.595 -8.7725,13.585 z"
         style="font-size:27.5px;text-align:center;text-anchor:middle;fill:#d2344f;fill-opacity:1"
         id="path4207"
         inkscape:connector-curvature="0" />
      <path
         d="m 191.10403,296.45048 c 0.165,0.88 0.9075,1.32 2.09,1.32 2.035,0 4.455,-1.4025 8.4975,-6.765 4.3725,-5.7475 7.2325,-10.56 7.2325,-12.2925 0,-1.265 -0.88,-1.87 -2.8875,-1.87 -0.22,0 -0.6875,0.0275 -1.0175,0.0825 0.33,0.3575 0.6325,1.265 0.6325,1.76 0,1.98 -1.925,5.6925 -4.6475,9.5425 -0.1925,-2.7225 -0.55,-6.1325 -0.9625,-8.9375 -0.22,-1.54 -0.9075,-2.255 -1.925,-2.255 -0.9625,0 -2.0075,0.3575 -3.1075,1.0175 0.99,0.77 1.9525,4.6475 2.7225,10.89 0.055,0.4125 0.11,0.9075 0.11,1.375 0,0.5225 -0.055,0.99 -0.2475,1.265 -1.265,1.815 -2.9425,3.2175 -4.6475,3.2175 -0.44,0 -1.1275,-0.22 -1.375,-0.44 -0.275,0.5775 -0.495,1.265 -0.495,1.7875 0,0.11 0,0.22 0.0275,0.3025 z"
         style="font-size:27.5px;text-align:center;text-anchor:middle;fill:#d2344f;fill-opacity:1"
         id="path4209"
         inkscape:connector-curvature="0" />
      <path
         d="m 211.22759,280.03298 c -1.7325,2.035 -2.6675,4.4275 -2.6675,7.095 0,3.19 2.0075,5.115 5.0325,5.115 4.895,0 8.91,-5.225 8.91,-10.395 0,-3.0525 -2.035,-4.895 -5.0325,-4.895 -2.3925,0 -4.5375,1.1825 -6.2425,3.08 z m 7.1775,1.815 c 0,3.1625 -1.5675,8.3875 -3.9875,8.3875 -1.32,0 -1.815,-1.1825 -1.815,-2.805 0,-3.1625 1.595,-8.4425 4.0425,-8.4425 1.32,0 1.76,1.2375 1.76,2.86 z"
         style="font-size:27.5px;text-align:center;text-anchor:middle;fill:#d2344f;fill-opacity:1"
         id="path4211"
         inkscape:connector-curvature="0" />
      <path
         d="m 236.53188,277.03548 c -0.6875,0 -1.65,0.1375 -2.365,0.385 0.1375,0.275 0.1925,0.6325 0.1925,0.935 0,1.485 -0.715,3.7675 -2.1175,6.325 -1.5125,2.7225 -3.2175,4.62 -3.9875,4.62 -0.4125,0 -0.5225,-0.3575 -0.5225,-0.715 0,-1.3475 0.9075,-4.51 1.7875,-8.36 0.11,-0.495 0.275,-1.1275 0.275,-1.6775 0,-0.825 -0.33,-1.5125 -1.595,-1.5125 -0.715,0 -1.705,0.1925 -2.695,0.5775 0.22,0.4125 0.275,0.935 0.275,1.4025 0,2.0625 -1.98,8.25 -1.98,10.395 0,1.4025 0.3575,2.8325 2.3925,2.8325 2.2275,0 4.29,-1.8425 6.4075,-5.3075 -0.1375,0.7425 -0.2475,1.375 -0.2475,2.1175 0,1.98 0.9075,2.9425 2.4475,2.9425 1.98,0 4.895,-3.025 4.895,-5.005 0,-0.165 -0.055,-0.2475 -0.165,-0.2475 -0.3025,0 -2.2275,2.2 -2.9975,2.365 -0.1375,-0.2475 -0.3025,-0.6325 -0.3025,-1.1825 0,-1.9525 0.88,-4.6475 1.6225,-7.3425 0.22,-0.7975 0.3575,-1.485 0.3575,-2.0625 0,-1.1275 -0.7975,-1.43 -1.6775,-1.485 z"
         style="font-size:27.5px;text-align:center;text-anchor:middle;fill:#d2344f;fill-opacity:1"
         id="path4213"
         inkscape:connector-curvature="0" />
      <path
         d="m 261.31712,288.20048 c -0.55,0.5225 -1.0725,0.9075 -1.3475,0.9625 -0.1375,-0.2475 -0.3025,-0.605 -0.3025,-1.155 0,-2.3375 1.3475,-6.545 2.7225,-12.43 0.1925,-0.825 0.3575,-1.6225 0.3575,-2.475 0,-0.99 -0.495,-1.54 -1.54,-1.54 -0.7975,0 -1.8425,0.275 -2.805,0.825 0.22,0.3575 0.275,0.77 0.275,1.21 0,1.1275 -0.22,2.6125 -0.6325,4.235 -0.7975,-0.44 -1.5675,-0.715 -2.64,-0.715 -4.675,0 -8.69,6.2975 -8.69,11.44 0,2.2 1.045,3.6575 2.7775,3.6575 1.8975,0 4.2075,-1.5675 6.4625,-5.28 -0.0825,0.55 -0.165,1.4575 -0.165,2.1175 0,2.0625 0.88,2.9975 2.475,2.9975 1.9525,0 4.8675,-2.9425 4.8675,-4.9775 0,-0.165 -0.055,-0.2475 -0.165,-0.2475 -0.2475,0 -0.7975,0.44 -1.65,1.375 z m -6.4075,-2.5025 c -1.375,2.2825 -2.585,3.63 -3.3275,3.63 -0.55,0 -0.825,-0.4675 -0.88,-1.43 0,-3.9325 2.255,-8.6625 4.455,-8.6625 1.045,0 2.0075,0.7425 2.2,1.815 -0.6875,1.54 -1.5125,3.135 -2.4475,4.6475 z"
         style="font-size:27.5px;text-align:center;text-anchor:middle;fill:#d2344f;fill-opacity:1"
         id="path4215"
         inkscape:connector-curvature="0" />
      <path
         d="m 265.58305,280.03298 c -1.7325,2.035 -2.6675,4.4275 -2.6675,7.095 0,3.19 2.0075,5.115 5.0325,5.115 4.895,0 8.91,-5.225 8.91,-10.395 0,-3.0525 -2.035,-4.895 -5.0325,-4.895 -2.3925,0 -4.5375,1.1825 -6.2425,3.08 z m 7.1775,1.815 c 0,3.1625 -1.5675,8.3875 -3.9875,8.3875 -1.32,0 -1.815,-1.1825 -1.815,-2.805 0,-3.1625 1.595,-8.4425 4.0425,-8.4425 1.32,0 1.76,1.2375 1.76,2.86 z"
         style="font-size:27.5px;text-align:center;text-anchor:middle;fill:#d2344f;fill-opacity:1"
         id="path4217"
         inkscape:connector-curvature="0" />
      <path
         d="m 287.77985,280.36298 c 0.22,0 0.4125,0.165 0.4125,0.605 0,0.4125 -0.385,2.3925 -1.1,5.5 -0.275,1.2375 -0.55,2.2 -0.55,3.135 0,1.7325 1.0175,2.53 2.475,2.53 1.925,0 4.8675,-2.97 4.8675,-5.005 0,-0.165 -0.055,-0.22 -0.165,-0.22 -0.3025,0 -0.77,0.4675 -1.65,1.375 -0.5225,0.55 -1.1,0.88 -1.3475,0.9625 -0.1375,-0.2475 -0.275,-0.6325 -0.275,-1.1825 0,-0.99 0.44,-2.42 0.825,-3.7675 0.5225,-2.145 0.9075,-4.0975 0.9075,-5.335 0,-1.155 -0.8525,-2.0075 -2.09,-2.0075 -2.31,0 -5.3075,3.2175 -7.0125,6.4075 0.5225,-2.145 0.99,-3.8775 0.99,-5.005 0,-0.9625 -0.77,-1.32 -1.4575,-1.32 -0.715,0 -1.6775,0.22 -2.8875,0.77 0.22,0.4675 0.3025,1.1 0.3025,1.7875 0,1.485 -0.4125,4.07 -1.485,7.6175 -0.4675,1.54 -1.0175,3.135 -1.6225,4.6475 0.88,0.1375 1.595,0.22 2.145,0.22 1.4025,0 1.8975,-0.495 2.2825,-1.485 1.2925,-3.2175 1.705,-4.29 3.0525,-6.4625 1.2925,-2.035 2.6125,-3.7675 3.3825,-3.7675 z"
         style="font-size:27.5px;text-align:center;text-anchor:middle;fill:#d2344f;fill-opacity:1"
         id="path4219"
         inkscape:connector-curvature="0" />
      <path
         d="m 300.04055,270.73798 c -0.9625,0 -1.8975,0.2475 -2.7225,0.6875 0.055,0.1375 0.11,0.2475 0.11,0.385 0.0275,1.1 -0.7425,4.3175 -0.715,5.115 0,0.605 0.1375,0.77 1.045,0.77 1.1825,0 1.265,-1.0175 2.31,-3.4375 0.495,-1.1275 0.825,-1.9525 0.9075,-2.475 0.0275,-0.1375 0.0275,-0.22 0.0275,-0.33 -0.0275,-0.4125 -0.33,-0.715 -0.9625,-0.715 z"
         style="font-size:27.5px;text-align:center;text-anchor:middle;fill:#d2344f;fill-opacity:1"
         id="path4221"
         inkscape:connector-curvature="0" />
      <path
         d="m 310.31481,278.35548 c -0.935,0.1375 -1.7875,0.1925 -2.6125,0.1925 l -1.43,0 c 0.5225,-2.695 0.66,-4.015 0.66,-3.9325 0,-0.825 -0.4675,-1.3475 -1.3475,-1.3475 -0.88,0 -1.815,0.2475 -2.97,0.9075 0.2475,0.55 0.3025,0.99 0.3025,1.5125 0,1.595 -0.6325,4.4275 -1.2375,6.7375 -0.55,2.2825 -0.6325,2.75 -0.9075,4.3725 -0.0825,0.5775 -0.165,1.155 -0.165,1.705 0,2.2 0.9075,3.575 3.19,3.575 1.98,0 4.8675,-3.025 4.8675,-5.005 0,-0.165 -0.0275,-0.2475 -0.1375,-0.2475 -0.275,0 -0.7975,0.4675 -1.6775,1.4025 -0.495,0.5225 -1.0725,1.045 -1.4025,1.045 -0.66,0 -1.0175,-0.4675 -1.0725,-1.32 0,-0.9075 0.22,-2.1175 0.44,-2.9425 0.385,-1.4575 0.715,-2.9425 0.99,-4.2625 0.22,-0.055 0.4125,-0.055 0.6325,-0.055 0.495,0 1.0175,0.0275 1.5675,0.0275 1.265,0 2.31,-0.9075 2.31,-2.2 0,-0.055 0,-0.11 0,-0.165 z"
         style="font-size:27.5px;text-align:center;text-anchor:middle;fill:#d2344f;fill-opacity:1"
         id="path4223"
         inkscape:connector-curvature="0" />
      <path
         d="m 323.31844,271.61798 c -0.8525,0.055 -1.7325,0.275 -2.805,0.88 0.22,0.4675 0.33,0.825 0.33,1.265 0,0.0825 -0.0275,0.165 -0.0275,0.275 -0.7975,6.2425 -2.09,12.3475 -4.18,17.82 0.88,0.1375 1.5675,0.22 2.1175,0.22 1.4025,0 1.8975,-0.495 2.2825,-1.485 0.9075,-2.2 1.3475,-3.355 2.035,-4.62 1.5125,4.4 2.8325,6.0225 4.455,6.0225 1.705,0 3.8225,-1.87 4.565,-3.7675 0.0275,-0.055 0.055,-0.11 0.055,-0.1925 0,-0.055 -0.0275,-0.11 -0.055,-0.11 -0.0275,0 -0.055,0.0275 -0.11,0.055 -0.9075,0.5775 -1.6775,0.8525 -2.365,0.8525 -1.9525,0 -2.8875,-2.365 -3.5475,-4.3725 -0.0825,-0.275 -0.1375,-0.55 -0.1375,-0.7975 0,-0.11 0.0275,-0.22 0.0275,-0.3025 2.255,-2.585 4.0425,-3.575 5.61,-3.575 -0.1375,-1.7875 -0.6325,-2.695 -1.5675,-2.695 -1.6775,0 -4.125,2.31 -7.425,6.875 1.43,-5.665 2.255,-11.11 2.255,-10.9725 0,-0.88 -0.5225,-1.375 -1.3475,-1.375 -0.055,0 -0.11,0 -0.165,0 z"
         style="font-size:27.5px;text-align:center;text-anchor:middle;fill:#d2344f;fill-opacity:1"
         id="path4225"
         inkscape:connector-curvature="0" />
      <path
         d="m 342.08161,280.36298 c 0.22,0 0.4125,0.165 0.4125,0.605 0,0.4125 -0.385,2.3925 -1.1,5.5 -0.275,1.2375 -0.55,2.2 -0.55,3.135 0,1.7325 1.0175,2.53 2.475,2.53 1.925,0 4.8675,-2.97 4.8675,-5.005 0,-0.165 -0.055,-0.22 -0.165,-0.22 -0.3025,0 -0.77,0.4675 -1.65,1.375 -0.5225,0.55 -1.1,0.88 -1.3475,0.9625 -0.1375,-0.2475 -0.275,-0.6325 -0.275,-1.1825 0,-0.99 0.44,-2.42 0.825,-3.7675 0.5225,-2.145 0.9075,-4.0975 0.9075,-5.335 0,-1.155 -0.8525,-2.0075 -2.09,-2.0075 -2.31,0 -5.3075,3.2175 -7.0125,6.4075 0.5225,-2.145 0.99,-3.8775 0.99,-5.005 0,-0.9625 -0.77,-1.32 -1.4575,-1.32 -0.715,0 -1.6775,0.22 -2.8875,0.77 0.22,0.4675 0.3025,1.1 0.3025,1.7875 0,1.485 -0.4125,4.07 -1.485,7.6175 -0.4675,1.54 -1.0175,3.135 -1.6225,4.6475 0.88,0.1375 1.595,0.22 2.145,0.22 1.4025,0 1.8975,-0.495 2.2825,-1.485 1.2925,-3.2175 1.705,-4.29 3.0525,-6.4625 1.2925,-2.035 2.6125,-3.7675 3.3825,-3.7675 z"
         style="font-size:27.5px;text-align:center;text-anchor:middle;fill:#d2344f;fill-opacity:1"
         id="path4227"
         inkscape:connector-curvature="0" />
      <path
         d="m 350.82231,280.03298 c -1.7325,2.035 -2.6675,4.4275 -2.6675,7.095 0,3.19 2.0075,5.115 5.0325,5.115 4.895,0 8.91,-5.225 8.91,-10.395 0,-3.0525 -2.035,-4.895 -5.0325,-4.895 -2.3925,0 -4.5375,1.1825 -6.2425,3.08 z m 7.1775,1.815 c 0,3.1625 -1.5675,8.3875 -3.9875,8.3875 -1.32,0 -1.815,-1.1825 -1.815,-2.805 0,-3.1625 1.595,-8.4425 4.0425,-8.4425 1.32,0 1.76,1.2375 1.76,2.86 z"
         style="font-size:27.5px;text-align:center;text-anchor:middle;fill:#d2344f;fill-opacity:1"
         id="path4229"
         inkscape:connector-curvature="0" />
      <path
         d="m 374.58661,291.96798 c -0.55,0.165 -0.88,0.1375 -1.76,0.165 0.1375,-1.32 0.11,-2.0075 0.11,-2.8875 0,-1.76 -0.055,-3.355 -0.11,-5.0875 -1.2925,2.7775 -2.8325,5.2525 -4.4275,6.8475 -0.935,0.935 -2.255,1.1 -3.575,1.1 0.1375,-0.935 0.165,-2.1725 0.165,-3.63 0,-2.1725 -0.0825,-4.95 -0.2475,-6.9025 -0.1375,-1.76 -0.55,-2.805 -1.1,-3.63 1.0725,-0.605 2.035,-0.9075 2.7775,-0.9075 1.5125,0 1.6775,1.155 1.8425,3.6575 0.11,1.43 0.165,3.41 0.165,5.5275 l 0,1.2925 c 3.1625,-3.85 3.9875,-6.7925 3.9875,-8.9375 0,-0.275 -0.0275,-0.5225 -0.11,-0.715 0.88,-0.385 1.6775,-0.55 2.3375,-0.55 1.4575,0 1.485,1.7875 1.485,5.2525 0,1.595 0,3.7125 -0.11,6.0225 2.2275,-2.97 4.125,-7.1775 4.125,-9.7075 0,-0.66 -0.2475,-1.8425 -0.9625,-2.5025 0.33,-0.055 0.7975,-0.0825 1.0175,-0.0825 2.0075,0 3.1625,0.55 3.1625,2.09 0,2.255 -4.95,12.595 -8.7725,13.585 z"
         style="font-size:27.5px;text-align:center;text-anchor:middle;fill:#d2344f;fill-opacity:1"
         id="path4231"
         inkscape:connector-curvature="0" />
      <path
         d="m 388.01692,289.82298 c 0,-0.99 -0.66,-1.5675 -1.815,-1.5675 -0.6875,0 -1.4025,0.22 -2.145,0.605 0.0275,0.11 0.0275,0.22 0.0275,0.33 0,0.3575 -0.165,0.9625 -0.3025,1.7325 l 0,0.4125 c 0.0825,0.6875 0.605,1.1 1.54,1.1 0.6875,0 1.485,-0.22 2.2,-0.605 0.3025,-0.77 0.495,-1.4575 0.495,-2.0075 z"
         style="font-size:27.5px;text-align:center;text-anchor:middle;fill:#d2344f;fill-opacity:1"
         id="path4233"
         inkscape:connector-curvature="0" />
      <path
         d="m 395.80501,289.82298 c 0,-0.99 -0.66,-1.5675 -1.815,-1.5675 -0.6875,0 -1.4025,0.22 -2.145,0.605 0.0275,0.11 0.0275,0.22 0.0275,0.33 0,0.3575 -0.165,0.9625 -0.3025,1.7325 l 0,0.4125 c 0.0825,0.6875 0.605,1.1 1.54,1.1 0.6875,0 1.485,-0.22 2.2,-0.605 0.3025,-0.77 0.495,-1.4575 0.495,-2.0075 z"
         style="font-size:27.5px;text-align:center;text-anchor:middle;fill:#d2344f;fill-opacity:1"
         id="path4235"
         inkscape:connector-curvature="0" />
      <path
         d="m 403.59309,289.82298 c 0,-0.99 -0.66,-1.5675 -1.815,-1.5675 -0.6875,0 -1.4025,0.22 -2.145,0.605 0.0275,0.11 0.0275,0.22 0.0275,0.33 0,0.3575 -0.165,0.9625 -0.3025,1.7325 l 0,0.4125 c 0.0825,0.6875 0.605,1.1 1.54,1.1 0.6875,0 1.485,-0.22 2.2,-0.605 0.3025,-0.77 0.495,-1.4575 0.495,-2.0075 z"
         style="font-size:27.5px;fill:#d2344f;fill-opacity:1"
         id="path4237"
         inkscape:connector-curvature="0" />
    </g>
  </g>
</svg>
