<?xml version="1.0" encoding="UTF-8" standalone="no"?>
<!-- Created with Inkscape (http://www.inkscape.org/) -->

<svg
   xmlns:dc="http://purl.org/dc/elements/1.1/"
   xmlns:cc="http://creativecommons.org/ns#"
   xmlns:rdf="http://www.w3.org/1999/02/22-rdf-syntax-ns#"
   xmlns:svg="http://www.w3.org/2000/svg"
   xmlns="http://www.w3.org/2000/svg"
   xmlns:sodipodi="http://sodipodi.sourceforge.net/DTD/sodipodi-0.dtd"
   xmlns:inkscape="http://www.inkscape.org/namespaces/inkscape"
   width="500"
   height="500"
   viewBox="0 0 500.00001 500.00001"
   id="svg2"
   version="1.1"
   inkscape:version="0.91 r13725"
   sodipodi:docname="itemstock_logo.svg">
  <defs
     id="defs4" />
  <sodipodi:namedview
     id="base"
     pagecolor="#ffffff"
     bordercolor="#666666"
     borderopacity="1.0"
     inkscape:pageopacity="0.0"
     inkscape:pageshadow="2"
     inkscape:zoom="2"
     inkscape:cx="296.26621"
     inkscape:cy="222.61788"
     inkscape:document-units="px"
     inkscape:current-layer="layer5"
     showgrid="false"
     units="px"
     inkscape:window-width="1366"
     inkscape:window-height="721"
     inkscape:window-x="-4"
     inkscape:window-y="-4"
     inkscape:window-maximized="1"
     showguides="true"
     inkscape:guide-bbox="true" />
  <metadata
     id="metadata7">
    <rdf:RDF>
      <cc:Work
         rdf:about="">
        <dc:format>image/svg+xml</dc:format>
        <dc:type
           rdf:resource="http://purl.org/dc/dcmitype/StillImage" />
        <dc:title />
      </cc:Work>
    </rdf:RDF>
  </metadata>
  <g
     inkscape:label="bg"
     inkscape:groupmode="layer"
     id="layer1"
     transform="translate(0,-552.36216)"
     style="display:inline"
     sodipodi:insensitive="true">
    <flowRoot
       xml:space="preserve"
       id="flowRoot3347"
       style="font-style:normal;font-weight:normal;font-size:40px;line-height:125%;font-family:sans-serif;letter-spacing:0px;word-spacing:0px;fill:#000000;fill-opacity:1;stroke:none;stroke-width:1px;stroke-linecap:butt;stroke-linejoin:miter;stroke-opacity:1"
       transform="translate(0,552.36216)"><flowRegion
         id="flowRegion3349"><rect
           id="rect3351"
           width="70"
           height="194.28572"
           x="328.57144"
           y="200" /></flowRegion><flowPara
         id="flowPara3353" /></flowRoot>    <rect
       style="fill:#111216;fill-opacity:1;stroke:none;stroke-width:3;stroke-miterlimit:4;stroke-dasharray:none"
       id="rect3363"
       width="521.42859"
       height="524.28571"
       x="-8.5714283"
       y="545.2193" />
  </g>
  <g
     inkscape:groupmode="layer"
     id="layer2"
     inkscape:label="ITEMSTOCK"
     transform="translate(0,-552.36216)"
     style="display:inline" />
  <g
     inkscape:groupmode="layer"
     id="layer3"
     inkscape:label="rect" />
  <g
     inkscape:groupmode="layer"
     id="layer4"
     inkscape:label="description"
     style="display:inline" />
  <g
     inkscape:groupmode="layer"
     id="layer5"
     inkscape:label="IS"
     style="display:inline">
    <g
       style="font-style:normal;font-weight:normal;font-size:63.81602478px;line-height:125%;font-family:sans-serif;letter-spacing:0px;word-spacing:0px;display:inline;fill:#c24040;fill-opacity:1;stroke:none;stroke-width:1px;stroke-linecap:butt;stroke-linejoin:miter;stroke-opacity:1"
       id="text3357">
      <path
         d="m 123.36537,214.43129 16.33691,0 0,44.67122 -16.33691,0 0,-44.67122 z"
         style="fill:#c75353;fill-opacity:1"
         id="path3357" />
      <path
         d="m 142.61488,227.38594 0,-12.95465 29.10011,0 0,12.95465 -6.3816,0 0,31.71657 -16.33691,0 0,-31.71657 -6.3816,0 z"
         style="fill:#c75353;fill-opacity:1"
         id="path3359" />
      <path
         d="m 174.59269,214.43129 29.10011,0 0,12.95465 -12.76321,0 0,3.70133 11.74215,0 0,10.91254 -11.74215,0 0,4.14805 13.40137,0 0,12.95465 -29.73827,0 0,-44.67122 z"
         style="fill:#c75353;fill-opacity:1"
         id="path3361" />
      <path
         d="m 259.82697,259.10251 -16.3369,0 0,-18.88954 -5.61581,18.88954 -8.42372,0 -5.61581,-18.88954 0,18.88954 -16.3369,0 0,-44.67122 21.05929,0 5.10528,17.23033 5.10528,-17.23033 21.05929,0 0,44.67122 z"
         style="fill:#c75353;fill-opacity:1"
         id="path3363" />
      <path
         d="m 275.85376,247.04128 q 2.23356,0 2.93554,-0.57434 0.76579,-0.57435 0.76579,-1.34014 0,-1.02106 -1.27632,-1.5954 -1.2125,-0.57435 -3.06317,-1.14869 -1.85066,-0.57434 -4.08423,-1.34014 -2.16974,-0.8296 -4.0204,-2.36119 -1.85067,-1.53158 -3.12699,-3.95659 -1.2125,-2.42501 -1.2125,-6.31779 0,-4.33949 1.72303,-7.21121 1.72303,-2.87172 4.27567,-4.59475 2.61646,-1.72304 5.61581,-2.42501 3.06317,-0.70198 5.74344,-0.70198 1.85067,0 3.70133,0.19145 1.85067,0.12763 3.70133,0.63816 1.85067,0.44671 3.70133,1.34014 1.91448,0.89342 3.82896,2.425 l 0,12.95466 q -3.50988,-2.48883 -6.50923,-3.31844 -2.93554,-0.8296 -5.55199,-0.8296 -0.25527,0 -0.7658,0.0638 -0.51052,0.0638 -1.02105,0.25527 -0.51053,0.12763 -0.89343,0.44671 -0.38289,0.25526 -0.38289,0.76579 0,0.89342 0.89342,1.40395 0.95724,0.44672 2.42501,0.82961 1.53158,0.3829 3.31843,0.82961 1.85067,0.3829 3.70133,1.2125 2.80791,1.21251 4.59476,4.02041 1.78684,2.74409 1.78684,6.38161 0,4.33949 -1.5954,7.53029 -1.53158,3.1908 -4.14804,5.29673 -2.61645,2.10593 -6.12634,3.1908 -3.44606,1.02105 -7.27502,1.02105 -1.34014,0 -3.12699,-0.12763 -1.72303,-0.12763 -3.63751,-0.63816 -1.85067,-0.44671 -3.76515,-1.34013 -1.85066,-0.95724 -3.44606,-2.55264 l 0,-14.48624 q 0.82961,0.82961 2.10593,1.91448 1.34013,1.02105 2.93553,1.9783 1.65922,0.89342 3.50989,1.53158 1.85066,0.63816 3.76514,0.63816 z"
         style="fill:#cbcbcb;fill-opacity:1"
         id="path3365" />
      <path
         d="m 299.28821,227.38594 0,-12.95465 29.1001,0 0,12.95465 -6.3816,0 0,31.71657 -16.3369,0 0,-31.71657 -6.3816,0 z"
         style="fill:#cbcbcb;fill-opacity:1"
         id="path3367" />
      <path
         d="m 330.01363,236.7669 q 0,-4.85002 1.72303,-9.12569 1.78685,-4.27568 4.91384,-7.40266 3.12698,-3.1908 7.40265,-5.04147 4.33949,-1.85066 9.38096,-1.85066 5.04147,0 9.31714,1.85066 4.33949,1.85067 7.46647,5.04147 3.12699,3.12698 4.91384,7.40266 1.78685,4.27567 1.78685,9.12569 0,4.85002 -1.78685,9.12569 -1.78685,4.27568 -4.91384,7.46648 -3.12698,3.12698 -7.46647,4.97765 -4.27567,1.78684 -9.31714,1.78684 -5.04147,0 -9.38096,-1.78684 -4.27567,-1.85067 -7.40265,-4.97765 -3.12699,-3.1908 -4.91384,-7.46648 -1.72303,-4.27567 -1.72303,-9.12569 z m 16.59217,0 q 0,1.65922 0.38289,3.12699 0.44671,1.46776 1.27632,2.55264 0.82961,1.08487 2.10593,1.72303 1.34014,0.63816 3.06317,0.63816 1.72303,0 2.99935,-0.63816 1.34014,-0.63816 2.16975,-1.72303 0.89342,-1.08488 1.27632,-2.55264 0.44671,-1.46777 0.44671,-3.12699 0,-1.65922 -0.44671,-3.12699 -0.3829,-1.46776 -1.27632,-2.55264 -0.82961,-1.14868 -2.16975,-1.78685 -1.27632,-0.63816 -2.99935,-0.63816 -1.72303,0 -3.06317,0.63816 -1.27632,0.63817 -2.10593,1.78685 -0.82961,1.08488 -1.27632,2.55264 -0.38289,1.46777 -0.38289,3.12699 z"
         style="fill:#cbcbcb;fill-opacity:1"
         id="path3369" />
      <path
         d="m 412.67731,257.12421 q -2.42501,1.46777 -5.23291,2.23356 -2.80791,0.76579 -5.87108,0.76579 -4.7862,0 -8.80661,-1.78684 -4.02041,-1.85067 -7.01976,-4.97765 -2.93554,-3.1908 -4.59476,-7.46648 -1.65921,-4.27567 -1.65921,-9.12569 0,-4.85002 1.65921,-9.12569 1.65922,-4.27568 4.59476,-7.40266 2.99935,-3.1908 7.01976,-5.04147 4.02041,-1.85066 8.80661,-1.85066 3.06317,0 5.87108,0.82961 2.8079,0.76579 5.23291,2.23356 l 0,16.3369 q -0.70198,-0.70198 -1.53159,-1.40395 -0.76579,-0.76579 -1.78684,-1.34014 -0.95724,-0.63816 -2.29738,-1.02106 -1.27632,-0.38289 -2.99935,-0.38289 -2.04212,0 -3.5737,0.63816 -1.46777,0.63816 -2.48883,1.78685 -0.95724,1.08487 -1.46777,2.55264 -0.44671,1.46777 -0.44671,3.1908 0,1.65922 0.44671,3.12699 0.51053,1.46776 1.46777,2.55264 1.02106,1.08487 2.48883,1.72303 1.53158,0.63816 3.5737,0.63816 3.25461,0 5.48817,-1.53159 2.23356,-1.5954 3.12699,-3.95659 l 0,17.80467 z"
         style="fill:#cbcbcb;fill-opacity:1"
         id="path3371" />
      <path
         d="m 439.83103,214.43129 17.29414,0 -11.10399,20.35731 13.01847,24.31391 -17.29414,0 -9.63622,-19.40007 0,19.40007 -16.3369,0 0,-44.67122 16.3369,0 0,15.5073 7.72174,-15.5073 z"
         style="fill:#cbcbcb;fill-opacity:1"
         id="path3373" />
    </g>
    <path
       inkscape:connector-curvature="0"
       style="font-style:normal;font-weight:normal;font-size:60px;line-height:125%;font-family:sans-serif;letter-spacing:0px;word-spacing:0px;display:inline;fill:#c24040;fill-opacity:1;stroke:none;stroke-width:1px;stroke-linecap:butt;stroke-linejoin:miter;stroke-opacity:1"
       d="m 123.36495,235.63628 0,23.46568 16.33831,0 0,-23.46568 -16.33831,0 z m 25.63235,0 0,23.46568 16.33624,0 0,-23.46568 -16.33624,0 z m 25.59496,0 0,23.46568 29.73927,0 0,-12.95432 -13.40095,0 0,-4.14846 11.74115,0 0,-6.3629 -28.07947,0 z m 32.90514,0 0,23.46568 16.33832,0 0,-18.8893 5.61505,18.8893 8.42363,0 5.61507,-18.8893 0,18.8893 16.33832,0 0,-23.46568 -52.33038,0 z"
       id="text4195" />
    <path
       inkscape:connector-curvature="0"
       style="font-style:normal;font-weight:normal;font-size:60px;line-height:125%;font-family:sans-serif;letter-spacing:0px;word-spacing:0px;display:inline;fill:#bebec0;fill-opacity:1;stroke:none;stroke-width:1px;stroke-linecap:butt;stroke-linejoin:miter;stroke-opacity:1"
       d="m 264.51428,235.63628 c 0.74385,1.20402 1.60593,2.22544 2.59669,3.04538 1.23377,1.02106 2.57316,1.80888 4.01965,2.36195 1.48903,0.51052 2.85029,0.95698 4.08407,1.33988 1.23377,0.3829 2.25575,0.76588 3.06408,1.14877 0.85088,0.3829 1.27548,0.9147 1.27548,1.5954 0,0.51053 -0.25393,0.95699 -0.76446,1.33989 -0.46798,0.38289 -1.44624,0.57335 -2.93528,0.57335 -1.27632,0 -2.53246,-0.2123 -3.76623,-0.63774 -1.23378,-0.42544 -2.40248,-0.9354 -3.50864,-1.53102 -1.0636,-0.63816 -2.04393,-1.29899 -2.93735,-1.9797 -0.85088,-0.72324 -1.55129,-1.36016 -2.10436,-1.91323 l 0,14.48532 c 1.0636,1.0636 2.21255,1.9149 3.44631,2.55306 1.27632,0.59561 2.53038,1.04209 3.76416,1.33988 1.27631,0.34035 2.48874,0.55266 3.63742,0.63774 1.19123,0.0851 2.23297,0.12881 3.12641,0.12881 2.55263,0 4.97749,-0.34136 7.27486,-1.02206 2.33993,-0.72325 4.38387,-1.78685 6.12816,-3.1908 1.74432,-1.40395 3.12533,-3.16796 4.14638,-5.29515 1.0636,-2.12721 1.5954,-4.63738 1.5954,-7.53037 0,-2.42501 -0.59528,-4.55221 -1.78651,-6.38161 -0.24157,-0.37959 -0.50115,-0.73189 -0.77069,-1.06775 l -29.58555,0 z m 41.15634,0 0,23.46568 16.33625,0 0,-23.46568 -16.33625,0 z m 24.36727,0 c -0.0159,0.37445 -0.0249,0.75033 -0.0249,1.13007 0,3.23335 0.5755,6.27533 1.72419,9.12578 1.19123,2.85045 2.82829,5.33877 4.91292,7.46597 2.08466,2.08466 4.55321,3.74562 7.40366,4.9794 2.89299,1.19123 6.02031,1.78652 9.3813,1.78652 3.36097,0 6.46643,-0.59529 9.31688,-1.78652 2.89299,-1.23378 5.38132,-2.89474 7.46597,-4.9794 2.08465,-2.1272 3.72169,-4.61552 4.91292,-7.46597 1.19124,-2.85045 1.7886,-5.89243 1.7886,-9.12578 0,-0.37974 -0.0106,-0.75562 -0.027,-1.13007 l -16.62706,0 c 0.0363,0.37033 0.0602,0.74421 0.0602,1.13007 0,1.10614 -0.14882,2.14997 -0.44663,3.12849 -0.25526,0.97851 -0.67987,1.82772 -1.27549,2.55097 -0.55307,0.72324 -1.2774,1.29876 -2.17083,1.7242 -0.85088,0.42544 -1.84892,0.63774 -2.9976,0.63774 -1.14869,0 -2.17066,-0.2123 -3.06408,-0.63774 -0.85088,-0.42544 -1.55336,-1.00096 -2.10643,-1.7242 -0.55307,-0.72325 -0.97768,-1.57246 -1.2755,-2.55097 -0.25527,-0.97852 -0.38224,-2.02235 -0.38224,-3.12849 0,-0.3882 0.035,-0.75758 0.0665,-1.13007 l -16.63537,0 z m 49.50519,0 c -0.0154,0.37703 -0.0499,0.74768 -0.0499,1.13007 0,3.23335 0.55364,6.27533 1.65979,9.12578 1.10615,2.85045 2.63599,5.33877 4.59301,7.46597 1.99956,2.08466 4.34115,3.74562 7.02142,4.9794 2.68027,1.19123 5.61506,1.78652 8.80586,1.78652 2.04212,0 3.99864,-0.256 5.87057,-0.76655 1.87194,-0.51053 3.61616,-1.25463 5.23283,-2.23314 l 0,-17.80492 c -0.59561,1.57412 -1.63736,2.89373 -3.1264,3.95733 -1.48904,1.02106 -3.3186,1.53101 -5.48835,1.53101 -1.3614,0 -2.55197,-0.2123 -3.57302,-0.63774 -0.97852,-0.42544 -1.80795,-1.00096 -2.48866,-1.7242 -0.63816,-0.72325 -1.12833,-1.57246 -1.46868,-2.55097 -0.29781,-0.97852 -0.44664,-2.02235 -0.44664,-3.12849 0,-0.38779 0.0242,-0.76168 0.0582,-1.13007 l -16.60006,0 z m 36.22889,0 0,23.46568 16.33832,0 0,-19.40032 9.63471,19.40032 17.29391,0 -12.56587,-23.46568 -30.70107,0 z"
       id="path4211" />
    <path
       style="fill:#e3e3e3;fill-opacity:1;stroke:none;stroke-width:3;stroke-miterlimit:4;stroke-dasharray:none"
       d="m 59.585144,213.3471 c -10.318306,0 -18.624796,8.30649 -18.624796,18.62479 l 0,15.52032 0,15.52031 0,18.62692 18.624796,0 27.216767,0 4.657793,0 c 10.318316,0 18.624796,-8.30862 18.624796,-18.62692 l 0,-31.04063 0,-18.62479 -18.624796,0 -31.87456,0 z"
       id="rect3349"
       inkscape:connector-curvature="0" />
    <g
       style="font-style:normal;font-weight:normal;font-size:42.54401779px;line-height:125%;font-family:sans-serif;letter-spacing:0px;word-spacing:0px;display:inline;fill:#bebec0;fill-opacity:1;stroke:none;stroke-width:1px;stroke-linecap:butt;stroke-linejoin:miter;stroke-opacity:1"
       id="text4158">
      <path
         d="m 138.57201,281.48618 q 0.013,0.28563 -0.18176,0.40248 -0.19476,0.11685 -0.79199,0.11685 -0.32459,0 -0.53232,-0.013 -0.20774,-0.013 -0.32459,-0.0519 -0.11685,-0.0389 -0.16878,-0.10387 -0.0389,-0.0779 -0.0519,-0.19475 l -0.84393,-6.81629 q -0.039,-0.36353 -0.0779,-0.779 -0.0389,-0.41547 -0.0779,-0.84392 -0.0389,-0.42846 -0.0779,-0.85691 -0.026,-0.42845 -0.0649,-0.80497 l -0.013,-0.29862 q -0.11685,0.37652 -0.24668,0.79199 -0.12984,0.41547 -0.28564,0.84392 -0.14281,0.42845 -0.28563,0.8569 -0.12984,0.42846 -0.24669,0.80498 l -2.45386,6.92015 q -0.0519,0.1558 -0.12983,0.25967 -0.0649,0.10387 -0.19475,0.16878 -0.11686,0.0649 -0.31161,0.0909 -0.18176,0.026 -0.45442,0.026 -0.27265,0 -0.45441,-0.026 -0.18177,-0.026 -0.31161,-0.0779 -0.11685,-0.0649 -0.19475,-0.16879 -0.0779,-0.10387 -0.12983,-0.25967 l -2.36298,-6.93313 q -0.12983,-0.36354 -0.27265,-0.77901 -0.12984,-0.41547 -0.27265,-0.84392 -0.12984,-0.44144 -0.25967,-0.86989 -0.12984,-0.42845 -0.22072,-0.80497 l -0.013,0.29862 q -0.0389,0.37652 -0.0779,0.80497 -0.0389,0.42845 -0.0909,0.85691 -0.0389,0.42845 -0.0909,0.84392 -0.0389,0.41547 -0.0649,0.779 l -0.80497,6.69944 q -0.013,0.1558 -0.0649,0.25966 -0.0389,0.0909 -0.16878,0.14282 -0.12983,0.0389 -0.33757,0.0519 -0.20773,0.026 -0.5453,0.026 -0.32459,0 -0.51934,-0.026 -0.18177,-0.026 -0.28563,-0.0909 -0.0909,-0.0649 -0.11685,-0.1558 -0.026,-0.10387 0,-0.24668 l 1.28535,-11.06186 q 0.0649,-0.41547 0.28564,-0.62321 0.2337,-0.22071 0.68812,-0.22071 l 1.02569,0 q 0.37652,0 0.63618,0.0649 0.27266,0.0519 0.45442,0.19475 0.19475,0.14282 0.32459,0.38951 0.12983,0.2337 0.24668,0.59723 l 1.7268,4.97265 q 0.14281,0.45442 0.29861,0.92182 0.15581,0.45442 0.28564,0.90884 0.14282,0.44143 0.25967,0.86988 0.12983,0.42846 0.2337,0.81796 l 0.026,0 q 0.11685,-0.40249 0.2337,-0.84392 0.12983,-0.45442 0.27265,-0.90884 0.14282,-0.4674 0.28563,-0.92182 0.1558,-0.45442 0.29862,-0.86989 l 1.72679,-4.94668 q 0.10387,-0.32458 0.22072,-0.55828 0.12984,-0.24669 0.3116,-0.38951 0.18177,-0.1558 0.42846,-0.22071 0.25966,-0.0779 0.6232,-0.0779 l 1.0127,0 q 0.46741,0 0.70111,0.19475 0.24668,0.19475 0.28563,0.6232 l 1.29834,11.08783 z"
         style="font-style:normal;font-variant:normal;font-weight:normal;font-stretch:normal;font-size:26.59000969px;font-family:Calibri;-inkscape-font-specification:Calibri;text-align:center;text-anchor:middle;fill:#bebec0;fill-opacity:1"
         id="path3364" />
      <path
         d="m 150.59465,281.61601 q 0,0.1558 -0.10387,0.2337 -0.10387,0.0779 -0.28564,0.11685 -0.18176,0.0389 -0.53232,0.0389 -0.33756,0 -0.5453,-0.0389 -0.19475,-0.0389 -0.28563,-0.11685 -0.0909,-0.0779 -0.0909,-0.2337 l 0,-1.16851 q -0.76602,0.81796 -1.71381,1.27238 -0.9348,0.45442 -1.98646,0.45442 -0.92182,0 -1.67486,-0.24669 -0.74005,-0.2337 -1.27237,-0.68812 -0.51934,-0.45442 -0.81795,-1.11657 -0.28564,-0.66215 -0.28564,-1.50608 0,-0.98673 0.40249,-1.7138 0.40248,-0.72708 1.15552,-1.20746 0.75304,-0.48039 1.84364,-0.71409 1.09061,-0.24668 2.45387,-0.24668 l 1.60994,0 0,-0.90884 q 0,-0.67514 -0.14282,-1.19447 -0.14282,-0.51934 -0.4674,-0.85691 -0.3116,-0.35055 -0.81796,-0.51934 -0.50635,-0.18176 -1.2464,-0.18176 -0.79199,0 -1.42818,0.19475 -0.6232,0.18177 -1.10359,0.41547 -0.4674,0.22072 -0.79199,0.41547 -0.3116,0.18176 -0.4674,0.18176 -0.10386,0 -0.18177,-0.0519 -0.0779,-0.0519 -0.14281,-0.1558 -0.0519,-0.10387 -0.0779,-0.25967 -0.026,-0.16878 -0.026,-0.36353 0,-0.32459 0.0389,-0.50636 0.0519,-0.19475 0.22072,-0.36353 0.18177,-0.16879 0.61022,-0.3895 0.42845,-0.23371 0.98674,-0.41547 0.55828,-0.19475 1.22044,-0.3116 0.66215,-0.12984 1.33729,-0.12984 1.25939,0 2.14226,0.28564 0.88287,0.28563 1.42817,0.84392 0.54531,0.5453 0.79199,1.36325 0.24669,0.81796 0.24669,1.90856 l 0,7.88093 z m -2.12928,-5.33618 -1.83066,0 q -0.88287,0 -1.53204,0.1558 -0.64917,0.14282 -1.07763,0.44144 -0.42845,0.28563 -0.63618,0.7011 -0.19475,0.40249 -0.19475,0.93481 0,0.90884 0.57127,1.45414 0.58425,0.53232 1.62292,0.53232 0.84392,0 1.55801,-0.42845 0.72707,-0.42846 1.51906,-1.31133 l 0,-2.47983 z"
         style="font-style:normal;font-variant:normal;font-weight:normal;font-stretch:normal;font-size:26.59000969px;font-family:Calibri;-inkscape-font-specification:Calibri;text-align:center;text-anchor:middle;fill:#bebec0;fill-opacity:1"
         id="path3366" />
      <path
         d="m 161.48772,270.54117 q 0,0.25967 -0.0389,0.44143 -0.026,0.18177 -0.0909,0.29862 -0.0519,0.11685 -0.12984,0.16879 -0.0649,0.0519 -0.16878,0.0519 l -4.40138,0 0,10.10109 q 0,0.10386 -0.0519,0.18176 -0.0519,0.0649 -0.16878,0.11686 -0.11686,0.0519 -0.32459,0.0779 -0.20773,0.026 -0.53232,0.026 -0.3116,0 -0.51934,-0.026 -0.20773,-0.026 -0.33756,-0.0779 -0.11685,-0.0519 -0.16879,-0.11686 -0.0389,-0.0779 -0.0389,-0.18176 l 0,-11.25661 q 0,-0.38951 0.16879,-0.57127 0.18176,-0.19475 0.49337,-0.19475 l 5.88148,0 q 0.10386,0 0.16878,0.0649 0.0779,0.0519 0.12984,0.18177 0.0649,0.11685 0.0909,0.29862 0.0389,0.16878 0.0389,0.41547 z"
         style="font-style:normal;font-variant:normal;font-weight:normal;font-stretch:normal;font-size:26.59000969px;font-family:Calibri;-inkscape-font-specification:Calibri;text-align:center;text-anchor:middle;fill:#bebec0;fill-opacity:1"
         id="path3368" />
      <path
         d="m 172.40676,281.61601 q 0,0.1558 -0.10387,0.2337 -0.10386,0.0779 -0.28563,0.11685 -0.18177,0.0389 -0.53232,0.0389 -0.33757,0 -0.5453,-0.0389 -0.19475,-0.0389 -0.28564,-0.11685 -0.0909,-0.0779 -0.0909,-0.2337 l 0,-1.16851 q -0.76602,0.81796 -1.71381,1.27238 -0.93481,0.45442 -1.98646,0.45442 -0.92182,0 -1.67486,-0.24669 -0.74005,-0.2337 -1.27237,-0.68812 -0.51934,-0.45442 -0.81796,-1.11657 -0.28563,-0.66215 -0.28563,-1.50608 0,-0.98673 0.40248,-1.7138 0.40249,-0.72708 1.15553,-1.20746 0.75303,-0.48039 1.84364,-0.71409 1.0906,-0.24668 2.45386,-0.24668 l 1.60994,0 0,-0.90884 q 0,-0.67514 -0.14281,-1.19447 -0.14282,-0.51934 -0.46741,-0.85691 -0.3116,-0.35055 -0.81795,-0.51934 -0.50635,-0.18176 -1.24641,-0.18176 -0.79198,0 -1.42817,0.19475 -0.62321,0.18177 -1.10359,0.41547 -0.4674,0.22072 -0.79199,0.41547 -0.3116,0.18176 -0.4674,0.18176 -0.10387,0 -0.18177,-0.0519 -0.0779,-0.0519 -0.14282,-0.1558 -0.0519,-0.10387 -0.0779,-0.25967 -0.026,-0.16878 -0.026,-0.36353 0,-0.32459 0.0389,-0.50636 0.0519,-0.19475 0.22071,-0.36353 0.18177,-0.16879 0.61022,-0.3895 0.42846,-0.23371 0.98674,-0.41547 0.55829,-0.19475 1.22044,-0.3116 0.66216,-0.12984 1.33729,-0.12984 1.25939,0 2.14227,0.28564 0.88287,0.28563 1.42817,0.84392 0.5453,0.5453 0.79199,1.36325 0.24668,0.81796 0.24668,1.90856 l 0,7.88093 z m -2.12928,-5.33618 -1.83066,0 q -0.88287,0 -1.53204,0.1558 -0.64917,0.14282 -1.07762,0.44144 -0.42845,0.28563 -0.63619,0.7011 -0.19475,0.40249 -0.19475,0.93481 0,0.90884 0.57127,1.45414 0.58425,0.53232 1.62293,0.53232 0.84392,0 1.55801,-0.42845 0.72707,-0.42846 1.51905,-1.31133 l 0,-2.47983 z"
         style="font-style:normal;font-variant:normal;font-weight:normal;font-stretch:normal;font-size:26.59000969px;font-family:Calibri;-inkscape-font-specification:Calibri;text-align:center;text-anchor:middle;fill:#bebec0;fill-opacity:1"
         id="path3370" />
      <path
         d="m 184.41641,278.37016 q 0,0.88287 -0.35055,1.58398 -0.35055,0.7011 -1.01271,1.20745 -0.64917,0.49337 -1.59696,0.75304 -0.94778,0.25967 -2.15524,0.25967 -0.67514,0 -1.27237,-0.10387 -0.58426,-0.0909 -1.07763,-0.2337 -0.48038,-0.1558 -0.81795,-0.32459 -0.32459,-0.18176 -0.4674,-0.29861 -0.12984,-0.11686 -0.19475,-0.20774 -0.0649,-0.10387 -0.0909,-0.22072 -0.026,-0.11685 -0.0519,-0.28563 -0.013,-0.16879 -0.013,-0.40249 0,-0.20773 0.026,-0.35055 0.026,-0.14282 0.0649,-0.2337 0.0389,-0.0909 0.0909,-0.12983 0.0519,-0.0519 0.14282,-0.0519 0.14282,0 0.3895,0.18177 0.25967,0.16878 0.68812,0.3895 0.42845,0.20774 1.05166,0.3895 0.63618,0.18177 1.55801,0.18177 0.64917,0 1.1685,-0.12983 0.51934,-0.14282 0.88287,-0.40249 0.36354,-0.27265 0.55829,-0.67514 0.20773,-0.40248 0.20773,-0.9348 0,-0.45442 -0.19475,-0.81795 -0.19475,-0.36354 -0.61022,-0.61022 -0.41546,-0.25967 -1.06464,-0.40249 -0.64917,-0.14282 -1.57099,-0.14282 l -1.29834,0 q -0.12983,0 -0.20773,-0.0389 -0.0779,-0.0519 -0.14282,-0.14282 -0.0519,-0.10386 -0.0779,-0.25966 -0.013,-0.16879 -0.013,-0.38951 0,-0.20773 0.026,-0.36353 0.026,-0.1558 0.0779,-0.24669 0.0519,-0.0909 0.12984,-0.12983 0.0779,-0.0519 0.19475,-0.0519 l 1.25939,0 q 0.81795,0 1.40221,-0.12984 0.59723,-0.12983 0.98674,-0.37652 0.40248,-0.25966 0.58425,-0.6232 0.19475,-0.37652 0.19475,-0.8569 0,-0.42846 -0.18177,-0.75304 -0.18177,-0.32459 -0.49337,-0.53232 -0.29862,-0.22072 -0.74005,-0.32459 -0.44144,-0.11685 -0.94779,-0.11685 -0.79199,0 -1.41519,0.18177 -0.61022,0.18177 -1.06464,0.40249 -0.44144,0.20773 -0.72707,0.3895 -0.28563,0.16878 -0.40249,0.16878 -0.0649,0 -0.12983,-0.026 -0.0519,-0.0389 -0.10387,-0.11685 -0.0389,-0.0909 -0.0649,-0.23371 -0.013,-0.1558 -0.013,-0.36353 0,-0.37652 0.0519,-0.59724 0.0649,-0.22072 0.22071,-0.37652 0.15581,-0.1558 0.54531,-0.36353 0.3895,-0.20774 0.90884,-0.36354 0.53231,-0.16878 1.14253,-0.27265 0.62321,-0.11685 1.27238,-0.11685 0.94779,0 1.73977,0.20774 0.79199,0.19475 1.35028,0.61022 0.57127,0.40248 0.88287,1.0127 0.3116,0.59724 0.3116,1.40221 0,0.48038 -0.1558,0.92182 -0.1558,0.42845 -0.45442,0.79199 -0.28563,0.36353 -0.71409,0.64917 -0.42845,0.28563 -0.94778,0.44143 l -0.026,0.013 q 0.50635,0.0519 0.99972,0.29862 0.49337,0.2337 0.88287,0.6232 0.3895,0.37652 0.62321,0.90884 0.24668,0.51933 0.24668,1.15552 z"
         style="font-style:normal;font-variant:normal;font-weight:normal;font-stretch:normal;font-size:26.59000969px;font-family:Calibri;-inkscape-font-specification:Calibri;text-align:center;text-anchor:middle;fill:#bebec0;fill-opacity:1"
         id="path3372" />
      <path
         d="m 197.99705,281.61601 q 0,0.0909 -0.0519,0.16878 -0.0519,0.0779 -0.16878,0.12984 -0.11685,0.0389 -0.32458,0.0649 -0.20774,0.026 -0.51934,0.026 -0.3116,0 -0.51934,-0.026 -0.20773,-0.026 -0.33757,-0.0649 -0.12983,-0.0519 -0.18176,-0.12984 -0.0519,-0.0779 -0.0519,-0.16878 l 0,-6.7254 q 0,-0.50635 0.026,-1.02569 0.026,-0.53232 0.0649,-1.03867 -0.29862,0.51933 -0.66216,1.02569 -0.35055,0.49336 -0.71408,0.98673 l -4.95966,6.77734 q -0.0909,0.10387 -0.16879,0.18177 -0.0649,0.0779 -0.18177,0.12983 -0.10386,0.0389 -0.27265,0.0519 -0.16878,0.026 -0.41547,0.026 -0.28563,0 -0.4674,-0.026 -0.18177,-0.026 -0.29862,-0.0649 -0.10386,-0.0519 -0.1558,-0.12984 -0.0389,-0.0779 -0.0389,-0.16878 l 0,-11.71103 q 0,-0.0909 0.0389,-0.16878 0.0519,-0.0779 0.16879,-0.12984 0.12983,-0.0519 0.33757,-0.0649 0.20773,-0.026 0.50635,-0.026 0.6232,0 0.8569,0.10387 0.2337,0.0909 0.2337,0.28563 l 0,6.76435 q 0,0.50636 -0.026,1.01271 -0.026,0.49337 -0.0649,0.98674 0.29862,-0.49337 0.59724,-0.96077 0.3116,-0.48039 0.66215,-0.93481 l 5.02458,-6.86822 q 0.0779,-0.10387 0.1558,-0.18177 0.0909,-0.0779 0.20773,-0.11685 0.12984,-0.0519 0.29862,-0.0649 0.16879,-0.026 0.44144,-0.026 0.27265,0 0.45442,0.026 0.19475,0.013 0.29861,0.0649 0.11685,0.0519 0.1558,0.12984 0.0519,0.0779 0.0519,0.18176 l 0,11.69805 z"
         style="font-style:normal;font-variant:normal;font-weight:normal;font-stretch:normal;font-size:26.59000969px;font-family:Calibri;-inkscape-font-specification:Calibri;text-align:center;text-anchor:middle;fill:#bebec0;fill-opacity:1"
         id="path3374" />
      <path
         d="m 212.22686,281.60303 q 0,0.10386 -0.0519,0.18176 -0.0519,0.0649 -0.16879,0.11686 -0.11685,0.0519 -0.32458,0.0779 -0.20774,0.026 -0.51934,0.026 -0.32458,0 -0.53232,-0.026 -0.20773,-0.026 -0.32458,-0.0779 -0.11685,-0.0519 -0.16879,-0.11686 -0.0519,-0.0779 -0.0519,-0.18176 l 0,-5.12845 -5.95938,0 0,5.12845 q 0,0.10386 -0.0519,0.18176 -0.0519,0.0649 -0.16878,0.11686 -0.11685,0.0519 -0.32459,0.0779 -0.20773,0.026 -0.53232,0.026 -0.3116,0 -0.51933,-0.026 -0.20774,-0.026 -0.33757,-0.0779 -0.11685,-0.0519 -0.16878,-0.11686 -0.0389,-0.0779 -0.0389,-0.18176 l 0,-11.68507 q 0,-0.10386 0.0389,-0.16878 0.0519,-0.0779 0.16878,-0.12983 0.12983,-0.0649 0.33757,-0.0779 0.20773,-0.026 0.51933,-0.026 0.32459,0 0.53232,0.026 0.20774,0.013 0.32459,0.0779 0.11685,0.0519 0.16878,0.12983 0.0519,0.0649 0.0519,0.16878 l 0,4.75193 5.95938,0 0,-4.75193 q 0,-0.10386 0.0519,-0.16878 0.0519,-0.0779 0.16879,-0.12983 0.11685,-0.0649 0.32458,-0.0779 0.20774,-0.026 0.53232,-0.026 0.3116,0 0.51934,0.026 0.20773,0.013 0.32458,0.0779 0.11685,0.0519 0.16879,0.12983 0.0519,0.0649 0.0519,0.16878 l 0,11.68507 z"
         style="font-style:normal;font-variant:normal;font-weight:normal;font-stretch:normal;font-size:26.59000969px;font-family:Calibri;-inkscape-font-specification:Calibri;text-align:center;text-anchor:middle;fill:#bebec0;fill-opacity:1"
         id="path3376" />
      <path
         d="m 230.63732,279.8243 q 0,0.22072 -0.013,0.3895 -0.013,0.1558 -0.0519,0.27265 -0.026,0.10387 -0.0779,0.19476 -0.0389,0.0779 -0.20773,0.24668 -0.1558,0.1558 -0.5453,0.40249 -0.38951,0.2337 -0.88287,0.42845 -0.48039,0.18177 -1.05166,0.29862 -0.57127,0.11685 -1.18149,0.11685 -1.25939,0 -2.23315,-0.41547 -0.97375,-0.41547 -1.6359,-1.20746 -0.64917,-0.80497 -0.99973,-1.96049 -0.33756,-1.16851 -0.33756,-2.68757 0,-1.72679 0.41546,-2.96021 0.42846,-1.24641 1.15553,-2.0384 0.74005,-0.79198 1.72679,-1.1685 0.99972,-0.38951 2.15524,-0.38951 0.55829,0 1.07763,0.10387 0.53232,0.10387 0.97375,0.27265 0.44144,0.16879 0.77901,0.38951 0.35055,0.22071 0.50635,0.37651 0.1558,0.1558 0.20773,0.24669 0.0649,0.0909 0.10387,0.22072 0.0389,0.11685 0.0519,0.27265 0.013,0.1558 0.013,0.3895 0,0.50635 -0.11685,0.71409 -0.11685,0.19475 -0.28564,0.19475 -0.19475,0 -0.45442,-0.20774 -0.24668,-0.22071 -0.63618,-0.48038 -0.38951,-0.25967 -0.94779,-0.4674 -0.5453,-0.22072 -1.29834,-0.22072 -1.54503,0 -2.37596,1.19447 -0.81796,1.18149 -0.81796,3.4406 0,1.12956 0.20774,1.98646 0.22071,0.84392 0.63618,1.41519 0.41547,0.57127 1.01271,0.85691 0.61022,0.27265 1.38922,0.27265 0.74006,0 1.29834,-0.2337 0.55829,-0.2337 0.96077,-0.50635 0.41547,-0.28564 0.68812,-0.50636 0.28564,-0.2337 0.44144,-0.2337 0.0909,0 0.1558,0.0519 0.0649,0.0519 0.10387,0.18176 0.0519,0.11685 0.0649,0.31161 0.026,0.18176 0.026,0.44143 z"
         style="font-style:normal;font-variant:normal;font-weight:normal;font-stretch:normal;font-size:26.59000969px;font-family:Calibri;-inkscape-font-specification:Calibri;text-align:center;text-anchor:middle;fill:#bebec0;fill-opacity:1"
         id="path3378" />
      <path
         d="m 243.37405,281.60303 q 0,0.10386 -0.0519,0.18176 -0.0519,0.0649 -0.16878,0.11686 -0.11685,0.0519 -0.32459,0.0779 -0.20773,0.026 -0.51933,0.026 -0.32459,0 -0.53232,-0.026 -0.20774,-0.026 -0.33757,-0.0779 -0.11685,-0.0519 -0.16879,-0.11686 -0.0519,-0.0779 -0.0519,-0.18176 l 0,-10.20496 -5.56988,0 0,10.20496 q 0,0.10386 -0.0519,0.18176 -0.0519,0.0649 -0.18177,0.11686 -0.11685,0.0519 -0.32459,0.0779 -0.20773,0.026 -0.51933,0.026 -0.3116,0 -0.51934,-0.026 -0.20773,-0.026 -0.33757,-0.0779 -0.11685,-0.0519 -0.16878,-0.11686 -0.0389,-0.0779 -0.0389,-0.18176 l 0,-11.25661 q 0,-0.38951 0.16878,-0.57127 0.18177,-0.19475 0.49337,-0.19475 l 8.55607,0 q 0.3116,0 0.48038,0.19475 0.16879,0.18176 0.16879,0.57127 l 0,11.25661 z"
         style="font-style:normal;font-variant:normal;font-weight:normal;font-stretch:normal;font-size:26.59000969px;font-family:Calibri;-inkscape-font-specification:Calibri;text-align:center;text-anchor:middle;fill:#bebec0;fill-opacity:1"
         id="path3380" />
      <path
         d="m 258.24004,275.63066 q 0,1.42818 -0.37652,2.63563 -0.37652,1.19448 -1.12955,2.06436 -0.74006,0.86989 -1.86961,1.36326 -1.11658,0.48039 -2.59669,0.48039 -1.44115,0 -2.51878,-0.42846 -1.06463,-0.42845 -1.77872,-1.2464 -0.71409,-0.81796 -1.06464,-1.98646 -0.35055,-1.16851 -0.35055,-2.64862 0,-1.42817 0.36353,-2.62264 0.37652,-1.20746 1.11658,-2.07735 0.75303,-0.86989 1.86961,-1.35027 1.11657,-0.48039 2.60966,-0.48039 1.44116,0 2.5058,0.42845 1.07762,0.42846 1.79171,1.24641 0.71408,0.81795 1.06463,1.98646 0.36354,1.16851 0.36354,2.63563 z m -2.25911,0.14282 q 0,-0.94779 -0.18177,-1.79171 -0.16878,-0.84392 -0.57127,-1.48011 -0.40248,-0.63619 -1.09061,-0.99972 -0.68812,-0.37652 -1.7138,-0.37652 -0.94779,0 -1.63591,0.33757 -0.67514,0.33757 -1.11658,0.96077 -0.44143,0.61022 -0.66215,1.45414 -0.20773,0.84392 -0.20773,1.84365 0,0.96077 0.16878,1.80469 0.18177,0.84392 0.58425,1.48011 0.41547,0.6232 1.10359,0.99972 0.68812,0.36353 1.71381,0.36353 0.93481,0 1.62293,-0.33756 0.68812,-0.33757 1.12955,-0.94779 0.44144,-0.61022 0.64917,-1.45414 0.20774,-0.84393 0.20774,-1.85663 z"
         style="font-style:normal;font-variant:normal;font-weight:normal;font-stretch:normal;font-size:26.59000969px;font-family:Calibri;-inkscape-font-specification:Calibri;text-align:center;text-anchor:middle;fill:#bebec0;fill-opacity:1"
         id="path3382" />
      <path
         d="m 272.14527,275.57873 q 0,1.53204 -0.33757,2.75248 -0.32458,1.22044 -0.97375,2.07734 -0.63619,0.84393 -1.58398,1.31133 -0.94779,0.45442 -2.16823,0.45442 -0.51933,0 -0.96077,-0.10387 -0.44144,-0.10387 -0.86989,-0.32459 -0.41547,-0.22071 -0.83094,-0.55828 -0.41546,-0.33757 -0.88287,-0.79199 l 0,5.84253 q 0,0.10387 -0.0519,0.18177 -0.0519,0.0779 -0.16879,0.12983 -0.11685,0.0519 -0.32458,0.0779 -0.20773,0.026 -0.53232,0.026 -0.3116,0 -0.51934,-0.026 -0.20773,-0.026 -0.33756,-0.0779 -0.11686,-0.0519 -0.16879,-0.12983 -0.0389,-0.0779 -0.0389,-0.18177 l 0,-16.32014 q 0,-0.11685 0.0389,-0.18176 0.0389,-0.0779 0.1558,-0.12984 0.11685,-0.0519 0.29862,-0.0649 0.18177,-0.026 0.44144,-0.026 0.27265,0 0.44143,0.026 0.18177,0.013 0.29862,0.0649 0.11685,0.0519 0.1558,0.12984 0.0519,0.0649 0.0519,0.18176 l 0,1.571 q 0.53232,-0.54531 1.02569,-0.94779 0.49337,-0.40249 0.98674,-0.66216 0.50635,-0.27265 1.02569,-0.40248 0.53232,-0.14282 1.11657,-0.14282 1.27238,0 2.16823,0.49337 0.89586,0.49337 1.45414,1.35027 0.57127,0.85691 0.83094,1.99945 0.25967,1.12955 0.25967,2.40193 z m -2.25911,0.24668 q 0,-0.89585 -0.14282,-1.72679 -0.12983,-0.84392 -0.4674,-1.49309 -0.32459,-0.64917 -0.88287,-1.03867 -0.55829,-0.38951 -1.38923,-0.38951 -0.41547,0 -0.81795,0.12984 -0.40249,0.11685 -0.81796,0.3895 -0.41547,0.25967 -0.86989,0.7011 -0.45441,0.42846 -0.96077,1.06464 l 0,4.64806 q 0.88287,1.07762 1.67486,1.64889 0.79199,0.57127 1.66188,0.57127 0.80497,0 1.37624,-0.3895 0.58425,-0.3895 0.9348,-1.03867 0.36354,-0.64917 0.53232,-1.45414 0.16879,-0.80497 0.16879,-1.62293 z"
         style="font-style:normal;font-variant:normal;font-weight:normal;font-stretch:normal;font-size:26.59000969px;font-family:Calibri;-inkscape-font-specification:Calibri;text-align:center;text-anchor:middle;fill:#bebec0;fill-opacity:1"
         id="path3384" />
      <path
         d="m 283.54469,270.55415 q 0,0.25967 -0.026,0.44144 -0.026,0.18176 -0.0909,0.29862 -0.0519,0.11685 -0.12983,0.18176 -0.0779,0.0519 -0.19475,0.0519 l -3.50552,0 0,10.07512 q 0,0.10386 -0.0519,0.18176 -0.0519,0.0649 -0.16879,0.11686 -0.11685,0.0519 -0.32458,0.0779 -0.20774,0.026 -0.53232,0.026 -0.31161,0 -0.51934,-0.026 -0.20773,-0.026 -0.33757,-0.0779 -0.11685,-0.0519 -0.16878,-0.11686 -0.0389,-0.0779 -0.0389,-0.18176 l 0,-10.07512 -3.50552,0 q -0.10387,0 -0.19475,-0.0519 -0.0779,-0.0649 -0.12984,-0.18176 -0.0519,-0.11686 -0.0909,-0.29862 -0.026,-0.19475 -0.026,-0.45442 0,-0.2337 0.026,-0.41547 0.0389,-0.18177 0.0909,-0.29862 0.0649,-0.12983 0.14282,-0.18177 0.0779,-0.0649 0.18177,-0.0649 l 9.1533,0 q 0.10387,0 0.18177,0.0649 0.0909,0.0519 0.14281,0.18177 0.0519,0.11685 0.0779,0.3116 0.0389,0.18177 0.0389,0.41547 z"
         style="font-style:normal;font-variant:normal;font-weight:normal;font-stretch:normal;font-size:26.59000969px;font-family:Calibri;-inkscape-font-specification:Calibri;text-align:center;text-anchor:middle;fill:#bebec0;fill-opacity:1"
         id="path3386" />
      <path
         d="m 296.04771,281.61601 q 0,0.0909 -0.0519,0.16878 -0.0519,0.0779 -0.16878,0.12984 -0.11685,0.0389 -0.32459,0.0649 -0.20773,0.026 -0.51933,0.026 -0.3116,0 -0.51934,-0.026 -0.20773,-0.026 -0.33757,-0.0649 -0.12983,-0.0519 -0.18176,-0.12984 -0.0519,-0.0779 -0.0519,-0.16878 l 0,-6.7254 q 0,-0.50635 0.026,-1.02569 0.026,-0.53232 0.0649,-1.03867 -0.29862,0.51933 -0.66216,1.02569 -0.35055,0.49336 -0.71408,0.98673 l -4.95966,6.77734 q -0.0909,0.10387 -0.16879,0.18177 -0.0649,0.0779 -0.18177,0.12983 -0.10386,0.0389 -0.27265,0.0519 -0.16878,0.026 -0.41547,0.026 -0.28563,0 -0.4674,-0.026 -0.18177,-0.026 -0.29862,-0.0649 -0.10386,-0.0519 -0.1558,-0.12984 -0.0389,-0.0779 -0.0389,-0.16878 l 0,-11.71103 q 0,-0.0909 0.0389,-0.16878 0.0519,-0.0779 0.16879,-0.12984 0.12983,-0.0519 0.33756,-0.0649 0.20774,-0.026 0.50636,-0.026 0.6232,0 0.8569,0.10387 0.2337,0.0909 0.2337,0.28563 l 0,6.76435 q 0,0.50636 -0.026,1.01271 -0.026,0.49337 -0.0649,0.98674 0.29862,-0.49337 0.59724,-0.96077 0.3116,-0.48039 0.66215,-0.93481 l 5.02458,-6.86822 q 0.0779,-0.10387 0.1558,-0.18177 0.0909,-0.0779 0.20773,-0.11685 0.12984,-0.0519 0.29862,-0.0649 0.16878,-0.026 0.44144,-0.026 0.27265,0 0.45441,0.026 0.19476,0.013 0.29862,0.0649 0.11685,0.0519 0.1558,0.12984 0.0519,0.0779 0.0519,0.18176 l 0,11.69805 z"
         style="font-style:normal;font-variant:normal;font-weight:normal;font-stretch:normal;font-size:26.59000969px;font-family:Calibri;-inkscape-font-specification:Calibri;text-align:center;text-anchor:middle;fill:#bebec0;fill-opacity:1"
         id="path3388" />
      <path
         d="m 309.62836,278.24033 q 0,0.92182 -0.35056,1.64889 -0.35055,0.71409 -1.03867,1.20745 -0.68812,0.48039 -1.71381,0.74006 -1.02569,0.24668 -2.38894,0.24668 -0.42846,0 -0.83094,-0.013 -0.40249,0 -0.779,-0.026 -0.37652,-0.013 -0.75304,-0.0389 -0.36354,-0.026 -0.72707,-0.0649 -0.51934,-0.0649 -0.76602,-0.33757 -0.24669,-0.28564 -0.24669,-0.83094 l 0,-10.06214 q 0,-0.53232 0.2337,-0.81795 0.24669,-0.28564 0.74006,-0.33757 0.33757,-0.0389 0.71408,-0.0649 0.38951,-0.026 0.79199,-0.0389 0.40249,-0.026 0.83094,-0.0389 0.42845,-0.013 0.86989,-0.013 1.25939,0 2.18121,0.20773 0.92182,0.20774 1.53204,0.61022 0.61022,0.40249 0.89586,0.98674 0.29861,0.58425 0.29861,1.33729 0,0.98674 -0.53232,1.68784 -0.51933,0.70111 -1.54502,0.99973 1.28536,0.27265 1.93453,1.05165 0.64917,0.77901 0.64917,1.9605 z m -2.5837,-5.42707 q 0,-0.42845 -0.1558,-0.76602 -0.1558,-0.33757 -0.51934,-0.57127 -0.35055,-0.2337 -0.92182,-0.35055 -0.55829,-0.11685 -1.36326,-0.11685 -0.61022,0 -1.11657,0.0389 -0.50635,0.026 -0.8569,0.0649 l 0,3.63535 2.18121,0 q 1.33729,0 2.03839,-0.49337 0.71409,-0.50635 0.71409,-1.44116 z m 0.3895,5.46602 q 0,-0.51934 -0.18177,-0.90884 -0.18176,-0.40249 -0.58425,-0.66216 -0.3895,-0.25966 -1.0127,-0.3895 -0.61022,-0.12983 -1.45415,-0.12983 l -2.09032,0 0,4.1417 q 0.24668,0.0389 0.50635,0.0649 0.27265,0.013 0.5453,0.0389 0.28564,0.013 0.55829,0.026 0.28563,0.013 0.51933,0.013 0.84393,0 1.44116,-0.14282 0.59724,-0.1558 0.98674,-0.44143 0.40249,-0.28564 0.58425,-0.68812 0.18177,-0.41547 0.18177,-0.92182 z"
         style="font-style:normal;font-variant:normal;font-weight:normal;font-stretch:normal;font-size:26.59000969px;font-family:Calibri;-inkscape-font-specification:Calibri;text-align:center;text-anchor:middle;fill:#bebec0;fill-opacity:1"
         id="path3390" />
      <path
         d="m 323.00125,281.60303 q 0,0.10386 -0.0519,0.18176 -0.0519,0.0649 -0.16879,0.11686 -0.11685,0.0519 -0.32458,0.0779 -0.20774,0.026 -0.51934,0.026 -0.32458,0 -0.53232,-0.026 -0.20773,-0.026 -0.32458,-0.0779 -0.11685,-0.0519 -0.16879,-0.11686 -0.0519,-0.0779 -0.0519,-0.18176 l 0,-5.12845 -5.95938,0 0,5.12845 q 0,0.10386 -0.0519,0.18176 -0.0519,0.0649 -0.16878,0.11686 -0.11685,0.0519 -0.32459,0.0779 -0.20773,0.026 -0.53231,0.026 -0.31161,0 -0.51934,-0.026 -0.20774,-0.026 -0.33757,-0.0779 -0.11685,-0.0519 -0.16878,-0.11686 -0.0389,-0.0779 -0.0389,-0.18176 l 0,-11.68507 q 0,-0.10386 0.0389,-0.16878 0.0519,-0.0779 0.16878,-0.12983 0.12983,-0.0649 0.33757,-0.0779 0.20773,-0.026 0.51934,-0.026 0.32458,0 0.53231,0.026 0.20774,0.013 0.32459,0.0779 0.11685,0.0519 0.16878,0.12983 0.0519,0.0649 0.0519,0.16878 l 0,4.75193 5.95938,0 0,-4.75193 q 0,-0.10386 0.0519,-0.16878 0.0519,-0.0779 0.16879,-0.12983 0.11685,-0.0649 0.32458,-0.0779 0.20774,-0.026 0.53232,-0.026 0.3116,0 0.51934,0.026 0.20773,0.013 0.32458,0.0779 0.11685,0.0519 0.16879,0.12983 0.0519,0.0649 0.0519,0.16878 l 0,11.68507 z"
         style="font-style:normal;font-variant:normal;font-weight:normal;font-stretch:normal;font-size:26.59000969px;font-family:Calibri;-inkscape-font-specification:Calibri;text-align:center;text-anchor:middle;fill:#bebec0;fill-opacity:1"
         id="path3392" />
      <path
         d="m 337.85427,275.63066 q 0,1.42818 -0.37652,2.63563 -0.37652,1.19448 -1.12956,2.06436 -0.74005,0.86989 -1.86961,1.36326 -1.11657,0.48039 -2.59668,0.48039 -1.44116,0 -2.51878,-0.42846 -1.06464,-0.42845 -1.77872,-1.2464 -0.71409,-0.81796 -1.06464,-1.98646 -0.35056,-1.16851 -0.35056,-2.64862 0,-1.42817 0.36354,-2.62264 0.37652,-1.20746 1.11657,-2.07735 0.75304,-0.86989 1.86961,-1.35027 1.11658,-0.48039 2.60967,-0.48039 1.44115,0 2.50579,0.42845 1.07763,0.42846 1.79171,1.24641 0.71409,0.81795 1.06464,1.98646 0.36354,1.16851 0.36354,2.63563 z m -2.25911,0.14282 q 0,-0.94779 -0.18177,-1.79171 -0.16879,-0.84392 -0.57127,-1.48011 -0.40249,-0.63619 -1.09061,-0.99972 -0.68812,-0.37652 -1.71381,-0.37652 -0.94779,0 -1.63591,0.33757 -0.67513,0.33757 -1.11657,0.96077 -0.44143,0.61022 -0.66215,1.45414 -0.20774,0.84392 -0.20774,1.84365 0,0.96077 0.16879,1.80469 0.18177,0.84392 0.58425,1.48011 0.41547,0.6232 1.10359,0.99972 0.68812,0.36353 1.71381,0.36353 0.9348,0 1.62292,-0.33756 0.68812,-0.33757 1.12956,-0.94779 0.44144,-0.61022 0.64917,-1.45414 0.20774,-0.84393 0.20774,-1.85663 z"
         style="font-style:normal;font-variant:normal;font-weight:normal;font-stretch:normal;font-size:26.59000969px;font-family:Calibri;-inkscape-font-specification:Calibri;text-align:center;text-anchor:middle;fill:#bebec0;fill-opacity:1"
         id="path3394" />
      <path
         d="m 347.98133,270.54117 q 0,0.25967 -0.0389,0.44143 -0.026,0.18177 -0.0909,0.29862 -0.0519,0.11685 -0.12983,0.16879 -0.0649,0.0519 -0.16879,0.0519 l -4.40137,0 0,10.10109 q 0,0.10386 -0.0519,0.18176 -0.0519,0.0649 -0.16879,0.11686 -0.11685,0.0519 -0.32458,0.0779 -0.20774,0.026 -0.53232,0.026 -0.3116,0 -0.51934,-0.026 -0.20773,-0.026 -0.33757,-0.0779 -0.11685,-0.0519 -0.16878,-0.11686 -0.0389,-0.0779 -0.0389,-0.18176 l 0,-11.25661 q 0,-0.38951 0.16878,-0.57127 0.18177,-0.19475 0.49337,-0.19475 l 5.88148,0 q 0.10387,0 0.16879,0.0649 0.0779,0.0519 0.12983,0.18177 0.0649,0.11685 0.0909,0.29862 0.0389,0.16878 0.0389,0.41547 z"
         style="font-style:normal;font-variant:normal;font-weight:normal;font-stretch:normal;font-size:26.59000969px;font-family:Calibri;-inkscape-font-specification:Calibri;text-align:center;text-anchor:middle;fill:#bebec0;fill-opacity:1"
         id="path3396" />
      <path
         d="m 360.75699,275.63066 q 0,1.42818 -0.37652,2.63563 -0.37651,1.19448 -1.12955,2.06436 -0.74006,0.86989 -1.86961,1.36326 -1.11657,0.48039 -2.59668,0.48039 -1.44116,0 -2.51878,-0.42846 -1.06464,-0.42845 -1.77873,-1.2464 -0.71409,-0.81796 -1.06464,-1.98646 -0.35055,-1.16851 -0.35055,-2.64862 0,-1.42817 0.36353,-2.62264 0.37652,-1.20746 1.11658,-2.07735 0.75304,-0.86989 1.86961,-1.35027 1.11657,-0.48039 2.60966,-0.48039 1.44116,0 2.5058,0.42845 1.07762,0.42846 1.79171,1.24641 0.71409,0.81795 1.06464,1.98646 0.36353,1.16851 0.36353,2.63563 z m -2.25911,0.14282 q 0,-0.94779 -0.18177,-1.79171 -0.16878,-0.84392 -0.57127,-1.48011 -0.40248,-0.63619 -1.0906,-0.99972 -0.68812,-0.37652 -1.71381,-0.37652 -0.94779,0 -1.63591,0.33757 -0.67514,0.33757 -1.11657,0.96077 -0.44144,0.61022 -0.66216,1.45414 -0.20773,0.84392 -0.20773,1.84365 0,0.96077 0.16878,1.80469 0.18177,0.84392 0.58426,1.48011 0.41546,0.6232 1.10359,0.99972 0.68812,0.36353 1.7138,0.36353 0.93481,0 1.62293,-0.33756 0.68812,-0.33757 1.12956,-0.94779 0.44143,-0.61022 0.64917,-1.45414 0.20773,-0.84393 0.20773,-1.85663 z"
         style="font-style:normal;font-variant:normal;font-weight:normal;font-stretch:normal;font-size:26.59000969px;font-family:Calibri;-inkscape-font-specification:Calibri;text-align:center;text-anchor:middle;fill:#bebec0;fill-opacity:1"
         id="path3398" />
      <path
         d="m 379.80364,281.60303 q 0,0.10386 -0.0519,0.18176 -0.0519,0.0649 -0.16879,0.11686 -0.11685,0.0519 -0.32458,0.0779 -0.20774,0.026 -0.51934,0.026 -0.32458,0 -0.53232,-0.026 -0.20773,-0.026 -0.33757,-0.0779 -0.11685,-0.0519 -0.16878,-0.11686 -0.0519,-0.0779 -0.0519,-0.18176 l 0,-10.20496 -5.56988,0 0,10.20496 q 0,0.10386 -0.0519,0.18176 -0.0519,0.0649 -0.18176,0.11686 -0.11685,0.0519 -0.32459,0.0779 -0.20773,0.026 -0.51934,0.026 -0.3116,0 -0.51933,-0.026 -0.20774,-0.026 -0.33757,-0.0779 -0.11685,-0.0519 -0.16878,-0.11686 -0.0389,-0.0779 -0.0389,-0.18176 l 0,-11.25661 q 0,-0.38951 0.16878,-0.57127 0.18177,-0.19475 0.49337,-0.19475 l 8.55606,0 q 0.3116,0 0.48039,0.19475 0.16878,0.18176 0.16878,0.57127 l 0,11.25661 z"
         style="font-style:normal;font-variant:normal;font-weight:normal;font-stretch:normal;font-size:26.59000969px;font-family:Calibri;-inkscape-font-specification:Calibri;text-align:center;text-anchor:middle;fill:#bebec0;fill-opacity:1"
         id="path3400" />
      <path
         d="m 394.20225,281.61601 q 0,0.0909 -0.0519,0.16878 -0.0519,0.0779 -0.16879,0.12984 -0.11685,0.0389 -0.32458,0.0649 -0.20774,0.026 -0.51934,0.026 -0.3116,0 -0.51934,-0.026 -0.20773,-0.026 -0.33756,-0.0649 -0.12984,-0.0519 -0.18177,-0.12984 -0.0519,-0.0779 -0.0519,-0.16878 l 0,-6.7254 q 0,-0.50635 0.026,-1.02569 0.026,-0.53232 0.0649,-1.03867 -0.29862,0.51933 -0.66216,1.02569 -0.35055,0.49336 -0.71408,0.98673 l -4.95966,6.77734 q -0.0909,0.10387 -0.16879,0.18177 -0.0649,0.0779 -0.18177,0.12983 -0.10386,0.0389 -0.27265,0.0519 -0.16878,0.026 -0.41547,0.026 -0.28563,0 -0.4674,-0.026 -0.18177,-0.026 -0.29862,-0.0649 -0.10386,-0.0519 -0.1558,-0.12984 -0.0389,-0.0779 -0.0389,-0.16878 l 0,-11.71103 q 0,-0.0909 0.0389,-0.16878 0.0519,-0.0779 0.16879,-0.12984 0.12983,-0.0519 0.33757,-0.0649 0.20773,-0.026 0.50635,-0.026 0.6232,0 0.8569,0.10387 0.2337,0.0909 0.2337,0.28563 l 0,6.76435 q 0,0.50636 -0.026,1.01271 -0.026,0.49337 -0.0649,0.98674 0.29862,-0.49337 0.59724,-0.96077 0.3116,-0.48039 0.66215,-0.93481 l 5.02458,-6.86822 q 0.0779,-0.10387 0.1558,-0.18177 0.0909,-0.0779 0.20773,-0.11685 0.12984,-0.0519 0.29862,-0.0649 0.16879,-0.026 0.44144,-0.026 0.27265,0 0.45442,0.026 0.19475,0.013 0.29861,0.0649 0.11685,0.0519 0.15581,0.12984 0.0519,0.0779 0.0519,0.18176 l 0,11.69805 z"
         style="font-style:normal;font-variant:normal;font-weight:normal;font-stretch:normal;font-size:26.59000969px;font-family:Calibri;-inkscape-font-specification:Calibri;text-align:center;text-anchor:middle;fill:#bebec0;fill-opacity:1"
         id="path3402" />
      <path
         d="m 406.36768,270.55415 q 0,0.25967 -0.026,0.44144 -0.026,0.18176 -0.0909,0.29862 -0.0519,0.11685 -0.12984,0.18176 -0.0779,0.0519 -0.19475,0.0519 l -3.50552,0 0,10.07512 q 0,0.10386 -0.0519,0.18176 -0.0519,0.0649 -0.16879,0.11686 -0.11685,0.0519 -0.32458,0.0779 -0.20774,0.026 -0.53232,0.026 -0.3116,0 -0.51934,-0.026 -0.20773,-0.026 -0.33757,-0.0779 -0.11685,-0.0519 -0.16878,-0.11686 -0.0389,-0.0779 -0.0389,-0.18176 l 0,-10.07512 -3.50552,0 q -0.10387,0 -0.19475,-0.0519 -0.0779,-0.0649 -0.12983,-0.18176 -0.0519,-0.11686 -0.0909,-0.29862 -0.026,-0.19475 -0.026,-0.45442 0,-0.2337 0.026,-0.41547 0.0389,-0.18177 0.0909,-0.29862 0.0649,-0.12983 0.14281,-0.18177 0.0779,-0.0649 0.18177,-0.0649 l 9.1533,0 q 0.10387,0 0.18177,0.0649 0.0909,0.0519 0.14282,0.18177 0.0519,0.11685 0.0779,0.3116 0.0389,0.18177 0.0389,0.41547 z"
         style="font-style:normal;font-variant:normal;font-weight:normal;font-stretch:normal;font-size:26.59000969px;font-family:Calibri;-inkscape-font-specification:Calibri;text-align:center;text-anchor:middle;fill:#bebec0;fill-opacity:1"
         id="path3404" />
      <path
         d="m 417.27375,281.61601 q 0,0.1558 -0.10387,0.2337 -0.10387,0.0779 -0.28563,0.11685 -0.18177,0.0389 -0.53232,0.0389 -0.33757,0 -0.54531,-0.0389 -0.19475,-0.0389 -0.28563,-0.11685 -0.0909,-0.0779 -0.0909,-0.2337 l 0,-1.16851 q -0.76602,0.81796 -1.71381,1.27238 -0.9348,0.45442 -1.98646,0.45442 -0.92182,0 -1.67485,-0.24669 -0.74006,-0.2337 -1.27238,-0.68812 -0.51933,-0.45442 -0.81795,-1.11657 -0.28564,-0.66215 -0.28564,-1.50608 0,-0.98673 0.40249,-1.7138 0.40248,-0.72708 1.15552,-1.20746 0.75304,-0.48039 1.84364,-0.71409 1.09061,-0.24668 2.45387,-0.24668 l 1.60994,0 0,-0.90884 q 0,-0.67514 -0.14282,-1.19447 -0.14282,-0.51934 -0.4674,-0.85691 -0.3116,-0.35055 -0.81796,-0.51934 -0.50635,-0.18176 -1.2464,-0.18176 -0.79199,0 -1.42818,0.19475 -0.6232,0.18177 -1.10359,0.41547 -0.4674,0.22072 -0.79198,0.41547 -0.3116,0.18176 -0.46741,0.18176 -0.10386,0 -0.18176,-0.0519 -0.0779,-0.0519 -0.14282,-0.1558 -0.0519,-0.10387 -0.0779,-0.25967 -0.026,-0.16878 -0.026,-0.36353 0,-0.32459 0.0389,-0.50636 0.0519,-0.19475 0.22072,-0.36353 0.18177,-0.16879 0.61022,-0.3895 0.42845,-0.23371 0.98674,-0.41547 0.55828,-0.19475 1.22044,-0.3116 0.66215,-0.12984 1.33729,-0.12984 1.25939,0 2.14226,0.28564 0.88287,0.28563 1.42817,0.84392 0.54531,0.5453 0.79199,1.36325 0.24669,0.81796 0.24669,1.90856 l 0,7.88093 z m -2.12928,-5.33618 -1.83066,0 q -0.88287,0 -1.53204,0.1558 -0.64917,0.14282 -1.07762,0.44144 -0.42846,0.28563 -0.63619,0.7011 -0.19475,0.40249 -0.19475,0.93481 0,0.90884 0.57127,1.45414 0.58425,0.53232 1.62292,0.53232 0.84392,0 1.55801,-0.42845 0.72707,-0.42846 1.51906,-1.31133 l 0,-2.47983 z"
         style="font-style:normal;font-variant:normal;font-weight:normal;font-stretch:normal;font-size:26.59000969px;font-family:Calibri;-inkscape-font-specification:Calibri;text-align:center;text-anchor:middle;fill:#bebec0;fill-opacity:1"
         id="path3406" />
      <path
         d="m 431.43863,281.60303 q 0,0.10386 -0.0519,0.18176 -0.0519,0.0649 -0.16879,0.11686 -0.11685,0.0519 -0.32458,0.0779 -0.20774,0.026 -0.51934,0.026 -0.32458,0 -0.53232,-0.026 -0.20773,-0.026 -0.32458,-0.0779 -0.11686,-0.0519 -0.16879,-0.11686 -0.0519,-0.0779 -0.0519,-0.18176 l 0,-5.12845 -5.95938,0 0,5.12845 q 0,0.10386 -0.0519,0.18176 -0.0519,0.0649 -0.16878,0.11686 -0.11685,0.0519 -0.32459,0.0779 -0.20773,0.026 -0.53232,0.026 -0.3116,0 -0.51933,-0.026 -0.20774,-0.026 -0.33757,-0.0779 -0.11685,-0.0519 -0.16879,-0.11686 -0.0389,-0.0779 -0.0389,-0.18176 l 0,-11.68507 q 0,-0.10386 0.0389,-0.16878 0.0519,-0.0779 0.16879,-0.12983 0.12983,-0.0649 0.33757,-0.0779 0.20773,-0.026 0.51933,-0.026 0.32459,0 0.53232,0.026 0.20774,0.013 0.32459,0.0779 0.11685,0.0519 0.16878,0.12983 0.0519,0.0649 0.0519,0.16878 l 0,4.75193 5.95938,0 0,-4.75193 q 0,-0.10386 0.0519,-0.16878 0.0519,-0.0779 0.16879,-0.12983 0.11685,-0.0649 0.32458,-0.0779 0.20774,-0.026 0.53232,-0.026 0.3116,0 0.51934,0.026 0.20773,0.013 0.32458,0.0779 0.11685,0.0519 0.16879,0.12983 0.0519,0.0649 0.0519,0.16878 l 0,11.68507 z"
         style="font-style:normal;font-variant:normal;font-weight:normal;font-stretch:normal;font-size:26.59000969px;font-family:Calibri;-inkscape-font-specification:Calibri;text-align:center;text-anchor:middle;fill:#bebec0;fill-opacity:1"
         id="path3408" />
      <path
         d="m 445.82426,281.61601 q 0,0.0909 -0.0519,0.16878 -0.0519,0.0779 -0.16878,0.12984 -0.11685,0.0389 -0.32458,0.0649 -0.20774,0.026 -0.51934,0.026 -0.3116,0 -0.51934,-0.026 -0.20773,-0.026 -0.33757,-0.0649 -0.12983,-0.0519 -0.18176,-0.12984 -0.0519,-0.0779 -0.0519,-0.16878 l 0,-6.7254 q 0,-0.50635 0.026,-1.02569 0.026,-0.53232 0.0649,-1.03867 -0.29862,0.51933 -0.66216,1.02569 -0.35055,0.49336 -0.71408,0.98673 l -4.95966,6.77734 q -0.0909,0.10387 -0.16879,0.18177 -0.0649,0.0779 -0.18177,0.12983 -0.10386,0.0389 -0.27265,0.0519 -0.16878,0.026 -0.41547,0.026 -0.28563,0 -0.4674,-0.026 -0.18177,-0.026 -0.29862,-0.0649 -0.10386,-0.0519 -0.1558,-0.12984 -0.0389,-0.0779 -0.0389,-0.16878 l 0,-11.71103 q 0,-0.0909 0.0389,-0.16878 0.0519,-0.0779 0.16879,-0.12984 0.12983,-0.0519 0.33757,-0.0649 0.20773,-0.026 0.50635,-0.026 0.6232,0 0.8569,0.10387 0.2337,0.0909 0.2337,0.28563 l 0,6.76435 q 0,0.50636 -0.026,1.01271 -0.026,0.49337 -0.0649,0.98674 0.29862,-0.49337 0.59724,-0.96077 0.3116,-0.48039 0.66215,-0.93481 l 5.02458,-6.86822 q 0.0779,-0.10387 0.1558,-0.18177 0.0909,-0.0779 0.20773,-0.11685 0.12984,-0.0519 0.29862,-0.0649 0.16878,-0.026 0.44144,-0.026 0.27265,0 0.45442,0.026 0.19475,0.013 0.29861,0.0649 0.11685,0.0519 0.1558,0.12984 0.0519,0.0779 0.0519,0.18176 l 0,11.69805 z"
         style="font-style:normal;font-variant:normal;font-weight:normal;font-stretch:normal;font-size:26.59000969px;font-family:Calibri;-inkscape-font-specification:Calibri;text-align:center;text-anchor:middle;fill:#bebec0;fill-opacity:1"
         id="path3410" />
      <path
         d="m 458.4441,281.60303 q 0,0.10386 -0.0519,0.18176 -0.0389,0.0779 -0.1558,0.12984 -0.11685,0.0389 -0.32458,0.0649 -0.20774,0.026 -0.54531,0.026 -0.3116,0 -0.51933,-0.026 -0.20774,-0.026 -0.33757,-0.0649 -0.11685,-0.0519 -0.16879,-0.12984 -0.0389,-0.0779 -0.0389,-0.18176 l 0,-4.92071 -1.23342,0 q -0.80497,0 -1.25939,0.12983 -0.44144,0.12984 -0.80497,0.44144 -0.35055,0.29862 -0.63619,0.779 -0.28563,0.4674 -0.5453,1.15552 l -0.94779,2.28508 q -0.0649,0.16879 -0.14282,0.27265 -0.0779,0.10387 -0.2337,0.16879 -0.14282,0.0519 -0.37652,0.0649 -0.22071,0.026 -0.55828,0.026 -0.24669,0 -0.44144,-0.013 -0.18177,-0.013 -0.3116,-0.0519 -0.12983,-0.026 -0.19475,-0.0909 -0.0649,-0.0779 -0.0649,-0.18177 0,-0.0909 0.0649,-0.28563 0.0779,-0.20774 0.29862,-0.71409 l 0.9348,-2.19419 q 0.36354,-0.83094 0.89586,-1.42818 0.53232,-0.61022 1.22044,-0.89585 -1.25939,-0.2337 -2.01243,-0.99972 -0.74005,-0.77901 -0.74005,-2.05138 0,-0.84392 0.35055,-1.51906 0.35055,-0.68812 1.02569,-1.15552 0.68812,-0.48039 1.67485,-0.72707 0.99973,-0.25967 2.28508,-0.25967 0.31161,0 0.71409,0.013 0.41547,0.013 0.84392,0.0389 0.44144,0.026 0.84392,0.0649 0.41547,0.026 0.71409,0.0519 0.3895,0.0389 0.58425,0.28564 0.19475,0.24668 0.19475,0.61022 l 0,11.10081 z m -2.14226,-10.43866 q -0.4674,-0.0649 -0.96077,-0.0779 -0.49337,-0.026 -0.90884,-0.026 -0.88287,0 -1.4801,0.1558 -0.58426,0.14282 -0.94779,0.42846 -0.35056,0.27265 -0.50636,0.64917 -0.14281,0.37652 -0.14281,0.83093 0,0.46741 0.16878,0.84393 0.18177,0.36353 0.53232,0.6232 0.36354,0.24668 0.92182,0.3895 0.55829,0.12984 1.55801,0.12984 l 1.76574,0 0,-3.94696 z"
         style="font-style:normal;font-variant:normal;font-weight:normal;font-stretch:normal;font-size:26.59000969px;font-family:Calibri;-inkscape-font-specification:Calibri;text-align:center;text-anchor:middle;fill:#bebec0;fill-opacity:1"
         id="path3412" />
    </g>
    <path
       inkscape:connector-curvature="0"
       style="font-style:normal;font-weight:normal;font-size:40px;line-height:125%;font-family:sans-serif;letter-spacing:0px;word-spacing:0px;display:inline;fill:#3b3b3b;fill-opacity:1;stroke:none;stroke-width:1px;stroke-linecap:butt;stroke-linejoin:miter;stroke-opacity:1"
       d="m 55.559548,230.71786 0,3.94694 a 40.682715,40.682715 0 0 0 12.252178,9.96088 l 0,-13.90782 -12.252178,0 z"
       id="text4164" />
    <path
       style="font-style:normal;font-weight:normal;font-size:40px;line-height:125%;font-family:sans-serif;letter-spacing:0px;word-spacing:0px;display:inline;fill:#c24040;fill-opacity:1;stroke:none;stroke-width:1px;stroke-linecap:butt;stroke-linejoin:miter;stroke-opacity:1"
       d="m 55.559548,238.67616 0,25.54511 12.252178,0 0,-16.27392 c -4.52248,-2.07414 -8.664221,-5.82424 -12.252178,-9.27119 z"
       id="text4156"
       inkscape:connector-curvature="0"
       sodipodi:nodetypes="ccccc" />
    <path
       style="font-style:normal;font-weight:normal;font-size:40px;line-height:125%;font-family:sans-serif;letter-spacing:0px;word-spacing:0px;display:inline;fill:#3b3b3b;fill-opacity:1;stroke:none;stroke-width:1px;stroke-linecap:butt;stroke-linejoin:miter;stroke-opacity:1"
       d="m 83.109292,229.9991 c -1.340136,0 -2.774752,0.17665 -4.306337,0.52764 -1.499675,0.35099 -2.904625,0.95616 -4.212854,1.81767 -1.27632,0.86152 -2.343826,2.01046 -3.205343,3.44632 -0.861516,1.43586 -1.294185,3.23966 -1.294185,5.40941 0,1.94639 0.303625,3.52591 0.909877,4.73841 0.63816,1.21251 1.419989,2.20067 2.345322,2.96646 0.925332,0.76579 1.931432,1.35716 3.016304,1.77197 1.116781,0.3829 2.136668,0.71618 3.062011,1.00336 0.925322,0.28717 1.691284,0.57493 2.297537,0.8621 0.63816,0.28717 0.957655,0.68602 0.957655,1.19655 0,0.38289 -0.190448,0.71826 -0.573345,1.00543 -0.350988,0.28717 -1.085202,0.43001 -2.201982,0.43001 -0.95724,0 -1.899856,-0.15871 -2.825192,-0.47779 -0.925332,-0.31908 -1.802387,-0.70206 -2.631995,-1.14877 -0.7977,-0.47862 -1.531917,-0.97269 -2.201986,-1.48322 -0.63816,-0.54244 -1.163977,-1.02064 -1.578782,-1.43545 l 0,10.86451 c 0.797701,0.7977 1.658885,1.43462 2.584218,1.91324 0.957239,0.44671 1.897777,0.78207 2.82311,1.00543 0.95724,0.25526 1.868114,0.41397 2.72963,0.47779 0.893425,0.0638 1.675256,0.0976 2.345324,0.0976 1.914481,0 3.732068,-0.25601 5.455111,-0.76654 1.754941,-0.54244 3.286855,-1.34014 4.595083,-2.3931 1.308229,-1.05296 2.346069,-2.37649 3.111861,-3.97189 0.797701,-1.5954 1.196551,-3.47855 1.196551,-5.64829 0,-1.81876 -0.446468,-3.41417 -1.339892,-4.7862 -0.893425,-1.40396 -2.042358,-2.41006 -3.44631,-3.01631 -0.925332,-0.4148 -1.852079,-0.71636 -2.777412,-0.9078 l -2.488655,-0.62321 c -0.733884,-0.19145 -1.339062,-0.39777 -1.817682,-0.62112 -0.446712,-0.25527 -0.670983,-0.6065 -0.670983,-1.05321 0,-0.25526 0.09519,-0.4478 0.286672,-0.57543 0.191448,-0.15954 0.415719,-0.27063 0.670983,-0.33445 0.255264,-0.0957 0.511284,-0.15921 0.766548,-0.19112 0.255264,-0.0319 0.445712,-0.0478 0.573344,-0.0478 1.308229,0 2.697301,0.20631 4.16507,0.62112 1.499676,0.4148 3.126826,1.24425 4.881766,2.48866 l 0,-9.71574 c -0.95724,-0.76579 -1.915725,-1.37096 -2.872965,-1.81767 -0.925333,-0.44671 -1.850006,-0.78209 -2.775338,-1.00545 -0.925332,-0.25526 -1.849995,-0.41604 -2.775327,-0.47986 -0.925332,-0.0957 -1.852079,-0.14333 -2.777412,-0.14333 z"
       id="text4186"
       inkscape:connector-curvature="0" />
    <path
       inkscape:connector-curvature="0"
       style="font-style:normal;font-weight:normal;font-size:40px;line-height:125%;font-family:sans-serif;letter-spacing:0px;word-spacing:0px;display:inline;fill:#c75353;fill-opacity:1;stroke:none;stroke-width:1px;stroke-linecap:butt;stroke-linejoin:miter;stroke-opacity:1"
       d="m 55.559548,238.67616 0,15.23732 a 58.409637,41.831085 8.0809123 0 1 11.435782,-6.37953 c -4.203575,-2.13255 -8.065873,-5.62032 -11.435782,-8.85779 z"
       id="path4212" />
    <path
       inkscape:connector-curvature="0"
       style="font-style:normal;font-weight:normal;font-size:40px;line-height:125%;font-family:sans-serif;letter-spacing:0px;word-spacing:0px;display:inline;fill:#4a4a4a;fill-opacity:1;stroke:none;stroke-width:1px;stroke-linecap:butt;stroke-linejoin:miter;stroke-opacity:1"
       d="m 83.109292,229.9991 c -1.340136,0 -2.774752,0.17665 -4.306337,0.52764 -1.499674,0.35099 -2.904625,0.95616 -4.212854,1.81767 -1.27632,0.86152 -2.343826,2.01046 -3.205343,3.44632 -0.861516,1.43586 -1.294185,3.23966 -1.294185,5.40941 0,1.94639 0.303625,3.52591 0.909877,4.73841 0.01568,0.0298 0.034,0.0556 0.04985,0.0852 a 58.409637,41.831085 8.0809123 0 1 14.597508,-3.10147 l -0.193193,-0.0478 c -0.733884,-0.19144 -1.339062,-0.39776 -1.817682,-0.62112 -0.446712,-0.25526 -0.670983,-0.60649 -0.670983,-1.05321 0,-0.25526 0.09519,-0.44779 0.286672,-0.57543 0.191448,-0.15954 0.415719,-0.27063 0.670983,-0.33445 0.255264,-0.0957 0.511284,-0.15921 0.766548,-0.19111 0.255264,-0.0319 0.445712,-0.0478 0.573344,-0.0478 1.308229,0 2.697312,0.20632 4.16507,0.62112 1.233202,0.3411 2.557821,0.97797 3.963581,1.88 a 58.409637,41.831085 8.0809123 0 1 0.918185,0.0125 l 0,-9.11955 c -0.95724,-0.76579 -1.915725,-1.37096 -2.872965,-1.81767 -0.925333,-0.44671 -1.850006,-0.78209 -2.775338,-1.00544 -0.925332,-0.25527 -1.849995,-0.41605 -2.775327,-0.47987 -0.925332,-0.0957 -1.852079,-0.14333 -2.777412,-0.14333 z"
       id="path4214" />
  </g>
</svg>
