<?xml version="1.0" encoding="utf-8"?>
<!-- Generator: Adobe Illustrator 19.0.0, SVG Export Plug-In . SVG Version: 6.00 Build 0)  -->
<svg version="1.1" id="Object" xmlns="http://www.w3.org/2000/svg" xmlns:xlink="http://www.w3.org/1999/xlink" x="0px" y="0px"
	 viewBox="-968.8 2599.5 470.6 470.6" style="enable-background:new -968.8 2599.5 470.6 470.6;" xml:space="preserve">
<style type="text/css">
	.st0{fill:#422417;}
	.st1{fill:#F8CC9F;}
	.st2{enable-background:new    ;}
</style>
<g>
	<rect x="-968.8" y="2599.5" class="st0" width="471" height="470.6"/>
</g>
<g>
	<path class="st1" d="M-775.7,2705.7c0,0.5,0.4,1,0.7,1.3c4.6,8,10.9,15.2,18.1,20.7c3.6,2.7,8.2,5.1,12.7,5.3
		c-13.6,23.1-23.4,48.1-34.2,72.7c-0.9,2.1,2.2,3.9,3.1,1.8c10.8-24.5,20.6-49.6,34.2-72.7c0.5-0.7,0.3-1.4-0.1-1.9
		c2.3-0.4,4.3-1.4,6.3-3.4c2.7-2.9,4-7,4.8-10.8c0.5-2.3-3-3.2-3.4-0.9c-0.9,4.3-2.4,9.8-7,11.4c-3.9,1.4-8.2-0.6-11.4-2.5
		c-8.2-4.9-14.9-12.9-19.7-21.2c3-5.4,5.2-11.1,6.3-17.2c9.5,8.3,26.6,8.5,36.6,1.4c0.1,0,0.1-0.1,0.2-0.2
		c2.6,9.6,3.4,19.9,9.2,28.2c3.3,4.5,8.1,7,13,9.3c6.7,3.4,12.5,7.1,16,14c7.2,14.3,1.7,31.8,6.9,46.8c2.4,6.8,7.1,12,12.5,16.6
		c5.5,4.7,10.8,9.2,13,16.4c0.6,2.2,4.1,1.3,3.4-0.9c-2.3-7.4-7.3-12.5-13.1-17.4c-7.3-6.2-12.2-12.8-14-22.4
		c-3-16.1,1.9-34.6-10.4-47.8c-5.1-5.4-12.3-7.7-18.5-11.4c-6.7-4-9.4-11.3-11.2-18.6c-2.7-10.5-4.3-21.7-11.3-29.5
		c7-4.1,5.6-16,0.5-21.4c-8.5-8.9-22.7,1.9-19.8,12.4c-9.1-0.6-18.8,2.1-24.8,8.3c-7.9,8.2-4.6,20-0.5,29.1
		C-777.2,2702.6-776.5,2704.1-775.7,2705.7z M-734.4,2654.8c3,4,3.8,13-1.7,15c-1.6-1.3-3.4-2.4-5.4-3.4c-2.2-1.1-4.6-1.8-7.1-2.3
		C-753.2,2655.6-740.3,2647-734.4,2654.8z M-769.9,2670.6c6.3-3.4,14.1-4.1,21-2.8c7.6,1.4,13.4,6.1,16.9,12.9
		c0.9,1.8,1.6,3.6,2.3,5.5c-0.3,0-0.6,0.1-1,0.4c-9.6,6.8-26.6,6.3-34.4-3.1c-0.8-0.9-1.8-0.6-2.4,0c-0.5,0.1-0.9,0.5-1,1.3
		c-0.8,6-2.6,11.5-5.3,16.9c-0.2-0.4-0.4-0.7-0.5-1c-2.4-4.7-4.2-10-4.4-15.2C-779.1,2678.8-775.4,2673.7-769.9,2670.6z"/>
	<path class="st1" d="M-779.8,2819.9c7.5-8.7,16.3-16.3,24.5-24.5c7.4-7.5,15.1-15.9,18.9-26c2.6-6.9,2.5-15,3.8-22.1
		c1.2-6.6,3.4-16.5,11.4-17.4c2.3-0.3,2.3-3.8,0-3.5c-16.6,2-15.1,26.3-17.6,38.3c-2.1,10.4-10.4,19.2-17.5,26.6
		c-8.5,8.9-17.9,16.8-26,26.1C-783.7,2819.1-781.2,2821.7-779.8,2819.9z"/>
	<path class="st1" d="M-726.1,2796.5c3.7-4.2,5.5-9.6,7-14.9c1.4-4.7,1.9-10.6,4.5-14.9c1.2-2-1.9-3.7-3.1-1.8
		c-2.2,3.5-2.8,8.1-3.9,12.1c-1.5,5.9-3.1,12.1-7.1,16.9c-1.4,1.6-2.9,3.1-4.5,4.4c-0.9,0-1.7,0.6-1.9,1.4
		c-8,5.7-17.9,9.1-24.4,16.9c-1.5,1.7,1.1,4.3,2.5,2.5c6.3-7.5,15.4-11.1,23.3-16.3c4.9,7.8,8.5,17.2,7.8,26.5
		c-0.2,2.3,3.4,2.3,3.5,0c0.7-9.9-3.2-20.2-8.5-28.5C-729.1,2799.5-727.6,2798.1-726.1,2796.5z"/>
	<path class="st1" d="M-596.4,2842.5c-8.6-1-16.4-6.1-23.9-10s-15.3-7.4-23.9-7.9c-17.5-0.9-31.7,13.9-47.6,18.8
		c-17.8,5.6-36.2-6.8-52.4-12.6c-11.4-4.1-25.6-8.3-37.7-5c-4,1.1-7,3.6-8.6,7.1c-3.9,2.4-13.3-1.1-16.8-2.7
		c-3.8-1.7-7.8-2.8-11.8-3.9c-8.2-2.1-17.1-3.4-25.6-2.2c-14.7,2.3-25.3,13.8-23.6,29c2.9,26.1,37.9,27.9,56.8,19.4
		c5.3-2.4,10-6.4,11.2-12.2c1.5-7.2-3-14.3-7.4-19.7c-1.4-1.8-4,0.7-2.5,2.5c3.6,4.3,7.5,10.1,6.4,16.2c-0.8,4.5-4.6,7.6-8.5,9.6
		c-9.9,5.2-22.9,5.3-33.6,3.1c-0.3-0.1-0.5-0.1-0.7-0.2c-1.3-5.1-2.9-10.4-6.3-14.5c8.2-7.4,11.2-18.9,14.4-29.3
		c0.1-0.3,0.1-0.6,0.1-0.8c7.5,0,15.3,1.5,21.4,3.3c4.6,1.3,8.8,3.4,13.2,5.1c2.6,1.1,8.1,2,12,1.4c-0.6,4.4,1.4,8.6,4.5,11.8
		c3.9,4.1,9.2,6.7,14,9.2c3.5,1.8,7.5,3.4,10.9,5.7c-9.4,1.8-19,3.4-28.6,2.8c-2.3-0.1-2.3,3.4,0,3.5c11.2,0.6,22.3-1.4,33.3-3.6
		c1.4-0.3,1.7-2.1,0.8-3c-8.1-7.7-20.3-9.5-28.2-17.7c-4-4.2-4.3-10.5,0.1-14.5c4.4-4.1,12.5-3.3,18-2.6
		c14.6,1.7,28.1,7.9,41.5,13.4c9,3.7,18.4,6.9,28.2,6c8.2-0.7,15.8-5,22.7-8.9c6.3-3.5,12.6-7.2,19.5-9.4c7.3-2.4,14.2-2.1,21.6,0.4
		c12.7,4.3,23.6,14,37.2,15.6C-594.2,2846.3-594.2,2842.8-596.4,2842.5z M-855.6,2855.4c-1.3-0.1-2.4,1.3-1.9,2.4
		c0,1,0.8,1.9,1.7,1.8c2.7,3.2,4.2,7.2,5.3,11.2c-4.4-1.6-8.2-4.3-10.9-8.5c-3.9-6.1-4.3-13.8-2-20.5c3.4-9.8,12-13.5,21.4-14.2
		C-844.8,2837.3-847.5,2848.7-855.6,2855.4z"/>
	<path class="st1" d="M-725.7,2855c-7.5-4.3-15.4-7.8-23.4-11c-2.2-0.8-3.1,2.6-0.9,3.4c7.1,2.8,14,6.1,20.8,9.7
		c3.8,2.1,7.6,4.3,10.9,7c1.3,1,4.8,3.8,3.9,5.8c-1.4,3-7.5,3.4-10.2,3.8c-6.5,1-13.2,0.5-19.8,0c-12.6-0.9-27.6-2.8-38.8,4.7
		c-1.9,1.3-0.1,4.3,1.8,3.1c12.7-8.5,30.7-4.3,44.9-3.7c6.3,0.3,12.7-0.1,18.8-1.8c2.8-0.8,6.4-2.4,7-5.7
		C-709.8,2863.2-721,2857.7-725.7,2855z"/>
</g>
<rect x="-945" y="2967.4" class="st1" width="426.8" height="3.6"/>
<g class="st2">
	<path class="st1" d="M-881,2988.6l5.7,13.6l5.7-13.6h1.7v15.5h-1.3v-6.8l0.1-6.9l-5.8,13.6h-1l-5.7-13.6l0.1,6.8v6.8h-1.3v-15.5
		L-881,2988.6L-881,2988.6z"/>
	<path class="st1" d="M-855.4,2999.7h-7l-1.6,4.3h-1.4l5.9-15.5h1.2l5.9,15.5h-1.4L-855.4,2999.7z M-862,2998.6h6.2l-3.1-8.4
		L-862,2998.6z"/>
	<path class="st1" d="M-839.3,2999.3c-0.1,0.8-0.3,1.5-0.6,2.1s-0.7,1.2-1.1,1.6c-0.5,0.4-1.1,0.8-1.7,1c-0.7,0.2-1.4,0.3-2.3,0.3
		c-0.9,0-1.7-0.2-2.4-0.5s-1.3-0.8-1.8-1.4c-0.5-0.6-0.9-1.3-1.2-2.2s-0.4-1.8-0.4-2.8v-1.9c0-1,0.1-2,0.4-2.9
		c0.3-0.9,0.7-1.6,1.2-2.2s1.1-1.1,1.9-1.4c0.7-0.3,1.5-0.5,2.5-0.5c0.8,0,1.6,0.1,2.2,0.3c0.7,0.2,1.2,0.6,1.7,1s0.8,1,1.1,1.6
		s0.5,1.3,0.5,2.1h-1.3c-0.1-0.6-0.2-1.2-0.4-1.7s-0.5-0.9-0.8-1.2s-0.8-0.6-1.3-0.8s-1.1-0.3-1.7-0.3c-0.7,0-1.4,0.1-1.9,0.4
		c-0.6,0.3-1,0.7-1.4,1.2s-0.7,1.1-0.9,1.8s-0.3,1.5-0.3,2.4v2c0,0.8,0.1,1.6,0.3,2.4c0.2,0.7,0.5,1.3,0.9,1.9
		c0.4,0.5,0.9,0.9,1.4,1.2c0.6,0.3,1.2,0.4,1.9,0.4c1.4,0,2.4-0.3,3.1-1c0.7-0.7,1.1-1.6,1.3-2.9L-839.3,2999.3L-839.3,2999.3z"/>
	<path class="st1" d="M-825.2,2999.3c-0.1,0.8-0.3,1.5-0.6,2.1s-0.7,1.2-1.1,1.6s-1.1,0.8-1.7,1c-0.7,0.2-1.4,0.3-2.3,0.3
		c-0.9,0-1.7-0.2-2.4-0.5s-1.3-0.8-1.8-1.4c-0.5-0.6-0.9-1.3-1.2-2.2s-0.4-1.8-0.4-2.8v-1.9c0-1,0.1-2,0.4-2.9
		c0.3-0.9,0.7-1.6,1.2-2.2c0.5-0.6,1.1-1.1,1.9-1.4c0.7-0.3,1.5-0.5,2.5-0.5c0.8,0,1.6,0.1,2.2,0.3c0.7,0.2,1.2,0.6,1.7,1
		s0.8,1,1.1,1.6s0.5,1.3,0.5,2.1h-1.3c-0.1-0.6-0.2-1.2-0.4-1.7s-0.5-0.9-0.8-1.2c-0.4-0.3-0.8-0.6-1.3-0.8s-1.1-0.3-1.7-0.3
		c-0.7,0-1.4,0.1-1.9,0.4c-0.6,0.3-1,0.7-1.4,1.2s-0.7,1.1-0.9,1.8s-0.3,1.5-0.3,2.4v2c0,0.8,0.1,1.6,0.3,2.4
		c0.2,0.7,0.5,1.3,0.9,1.9c0.4,0.5,0.9,0.9,1.4,1.2c0.6,0.3,1.2,0.4,1.9,0.4c1.4,0,2.4-0.3,3.1-1c0.7-0.7,1.1-1.6,1.3-2.9
		L-825.2,2999.3L-825.2,2999.3z"/>
	<path class="st1" d="M-813.7,2999.7h-7l-1.6,4.3h-1.4l5.9-15.5h1.2l5.9,15.5h-1.4L-813.7,2999.7z M-820.3,2998.6h6.2l-3.1-8.4
		L-820.3,2998.6z"/>
	<path class="st1" d="M-798.4,2996.7h-1.7v7.4h-1.3v-7.4h-1.8l-5.2,7.4h-1.7l5.7-8l-5.3-7.5h1.6l4.9,7h1.9v-7h1.3v7h1.8l4.9-7h1.6
		l-5.3,7.5l5.7,8h-1.6L-798.4,2996.7z"/>
	<path class="st1" d="M-788.4,3003.6c0,0.3,0,0.6-0.1,1s-0.2,0.6-0.3,0.9s-0.3,0.6-0.5,0.8c-0.2,0.3-0.4,0.5-0.6,0.7l-0.8-0.6
		c0.3-0.4,0.6-0.9,0.7-1.3c0.2-0.4,0.3-0.9,0.3-1.5v-1.5h1.2L-788.4,3003.6L-788.4,3003.6z"/>
	<path class="st1" d="M-769.8,2989.7h-5.3v14.3h-1.3v-14.3h-5.3v-1.1h11.9L-769.8,2989.7L-769.8,2989.7z"/>
	<path class="st1" d="M-759.8,2999.7h-7l-1.6,4.3h-1.4l5.9-15.5h1.2l5.9,15.5h-1.4L-759.8,2999.7z M-766.4,2998.6h6.2l-3.1-8.4
		L-766.4,2998.6z"/>
	<path class="st1" d="M-745.4,2989.7h-5.3v14.3h-1.3v-14.3h-5.3v-1.1h11.9L-745.4,2989.7L-745.4,2989.7z"/>
	<path class="st1" d="M-737.7,2998.5l4.4-9.9h1.5l-5.9,12.8c-0.1,0.3-0.3,0.6-0.5,1c-0.2,0.3-0.4,0.6-0.7,0.9s-0.6,0.5-1,0.7
		s-0.9,0.3-1.5,0.3c-0.1,0-0.2,0-0.3,0s-0.2,0-0.3,0s-0.2,0-0.3,0s-0.1,0-0.2,0l0.1-1.1c0,0,0.1,0,0.2,0s0.2,0,0.2,0s0.2,0,0.3,0
		s0.2,0,0.2,0c0.3,0,0.6-0.1,0.9-0.2c0.3-0.1,0.5-0.3,0.7-0.5s0.4-0.4,0.5-0.7s0.3-0.5,0.4-0.8l0.6-1.1l-5.9-11.4h1.5L-737.7,2998.5
		z"/>
	<path class="st1" d="M-721.9,2999.7h-7l-1.6,4.3h-1.4l5.9-15.5h1.2l5.9,15.5h-1.4L-721.9,2999.7z M-728.5,2998.6h6.2l-3.1-8.4
		L-728.5,2998.6z"/>
	<path class="st1" d="M-706.6,2996.7h-1.7v7.4h-1.3v-7.4h-1.8l-5.2,7.4h-1.7l5.7-8l-5.3-7.5h1.6l4.9,7h1.9v-7h1.3v7h1.8l4.9-7h1.6
		l-5.3,7.5l5.7,8h-1.6L-706.6,2996.7z"/>
	<path class="st1" d="M-696.6,3003.6c0,0.3,0,0.6-0.1,1s-0.2,0.6-0.3,0.9s-0.3,0.6-0.5,0.8c-0.2,0.3-0.4,0.5-0.6,0.7l-0.8-0.6
		c0.3-0.4,0.6-0.9,0.7-1.3c0.2-0.4,0.3-0.9,0.3-1.5v-1.5h1.2L-696.6,3003.6L-696.6,3003.6z"/>
	<path class="st1" d="M-686.3,2988.6l5.7,13.6l5.7-13.6h1.7v15.5h-1.3v-6.8l0.1-6.9l-5.8,13.6h-1l-5.7-13.6l0.1,6.8v6.8h-1.3v-15.5
		L-686.3,2988.6L-686.3,2988.6z"/>
	<path class="st1" d="M-660.7,2999.7h-7l-1.6,4.3h-1.4l5.9-15.5h1.2l5.9,15.5h-1.4L-660.7,2999.7z M-667.3,2998.6h6.2l-3.1-8.4
		L-667.3,2998.6z"/>
	<path class="st1" d="M-644,3004.1h-1.3v-7.4h-8.8v7.4h-1.3v-15.5h1.3v6.9h8.8v-6.9h1.3V3004.1z"/>
	<path class="st1" d="M-629.9,2988.6h1.3v15.5h-1.3v-13.2l-8.8,13.2h-1.3v-15.5h1.3v13.2L-629.9,2988.6z"/>
	<path class="st1" d="M-621.1,2996.8h-2.1v7.3h-1.3v-15.5h1.3v7.1h2.1l6-7.1h1.6l-6.4,7.6l6.8,7.9h-1.6L-621.1,2996.8z"/>
	<path class="st1" d="M-594.3,2997.2c0,1.1-0.1,2.1-0.4,2.9c-0.3,0.9-0.7,1.6-1.2,2.2s-1.2,1.1-1.9,1.4c-0.7,0.3-1.6,0.5-2.5,0.5
		s-1.7-0.2-2.5-0.5c-0.7-0.3-1.4-0.8-1.9-1.4s-0.9-1.4-1.2-2.2c-0.3-0.9-0.4-1.9-0.4-2.9v-0.4h-2.8v7.3h-1.3v-15.5h1.3v7.1h2.8v-0.2
		c0-1.1,0.1-2.1,0.4-2.9c0.3-0.9,0.7-1.6,1.2-2.2c0.5-0.6,1.2-1.1,1.9-1.4c0.7-0.3,1.6-0.5,2.5-0.5s1.7,0.2,2.5,0.5
		c0.7,0.3,1.4,0.8,1.9,1.4c0.5,0.6,0.9,1.4,1.2,2.2c0.3,0.9,0.4,1.9,0.4,2.9V2997.2z M-595.6,2995.5c0-0.9-0.1-1.7-0.3-2.5
		s-0.5-1.4-0.9-1.9s-0.9-0.9-1.5-1.2s-1.3-0.4-2-0.4s-1.4,0.1-2,0.4c-0.6,0.3-1.1,0.7-1.5,1.2s-0.7,1.1-0.9,1.9s-0.3,1.6-0.3,2.5
		v1.7c0,0.9,0.1,1.7,0.3,2.5s0.5,1.4,0.9,1.9s0.9,0.9,1.5,1.2s1.2,0.4,2,0.4s1.4-0.1,2-0.4c0.6-0.3,1.1-0.7,1.5-1.2s0.7-1.1,0.9-1.9
		s0.3-1.6,0.3-2.5V2995.5z"/>
	<path class="st1" d="M-589.6,2997.8v6.3h-1.3v-15.5h5.3c0.8,0,1.6,0.1,2.2,0.3c0.6,0.2,1.2,0.5,1.6,1c0.4,0.4,0.8,0.9,1,1.5
		s0.3,1.2,0.3,1.9s-0.1,1.4-0.3,1.9c-0.2,0.6-0.6,1-1,1.4s-1,0.7-1.6,0.9c-0.7,0.2-1.4,0.3-2.3,0.3L-589.6,2997.8L-589.6,2997.8z
		 M-589.6,2996.7h4c0.7,0,1.3-0.1,1.8-0.3s0.9-0.4,1.2-0.7s0.5-0.7,0.7-1.1s0.2-0.9,0.2-1.3c0-0.5-0.1-0.9-0.2-1.4
		c-0.1-0.4-0.4-0.8-0.7-1.1s-0.7-0.6-1.2-0.8s-1.1-0.3-1.8-0.3h-4V2996.7z"/>
</g>
<g>
	<path class="st1" d="M-903.4,2936.7c-0.1,0.9-0.3,1.8-0.6,2.5c-0.3,0.8-0.8,1.4-1.4,2c-0.6,0.5-1.4,1-2.2,1.3
		c-0.9,0.3-1.9,0.5-3,0.5c-1.2,0-2.2-0.2-3.1-0.6c-0.9-0.4-1.7-1-2.3-1.7c-0.6-0.8-1.1-1.7-1.5-2.7c-0.3-1.1-0.5-2.3-0.5-3.6v-1.2
		c0-1.3,0.2-2.5,0.5-3.6c0.4-1.1,0.9-2,1.5-2.7c0.6-0.8,1.4-1.3,2.4-1.7c0.9-0.4,2-0.6,3.1-0.6s2.1,0.2,3,0.5s1.6,0.8,2.2,1.3
		s1.1,1.2,1.4,2c0.3,0.8,0.6,1.6,0.6,2.5h-3.7c0-0.5-0.1-1-0.3-1.4s-0.4-0.8-0.6-1c-0.3-0.3-0.6-0.5-1.1-0.6c-0.4-0.1-1-0.2-1.6-0.2
		c-1.3,0-2.2,0.5-2.8,1.4s-0.9,2.3-0.9,4.2v1.2c0,0.9,0.1,1.8,0.2,2.5c0.1,0.7,0.4,1.3,0.6,1.8c0.3,0.5,0.7,0.8,1.1,1.1
		c0.5,0.2,1,0.4,1.7,0.4c0.6,0,1.1-0.1,1.5-0.2c0.4-0.1,0.8-0.3,1.1-0.6s0.5-0.6,0.7-1s0.3-0.9,0.3-1.4h3.7V2936.7z"/>
	<path class="st1" d="M-890.8,2939h-6.5l-1.2,3.7h-4l6.7-18h3.4l6.8,18h-4L-890.8,2939z M-896.3,2936h4.5l-2.3-6.8L-896.3,2936z"/>
	<path class="st1" d="M-869,2924.7v18h-3.7v-15h-4.8l-0.2,5.1c-0.1,1.8-0.3,3.4-0.5,4.6c-0.3,1.3-0.6,2.3-1.1,3.1s-1.1,1.4-1.8,1.7
		s-1.6,0.5-2.6,0.5h-0.9v-3h0.5c0.6-0.1,1-0.2,1.4-0.4c0.3-0.2,0.6-0.6,0.8-1.2s0.3-1.2,0.4-2.1s0.2-1.9,0.2-3.2l0.3-8.1
		L-869,2924.7L-869,2924.7z"/>
	<path class="st1" d="M-850.9,2934.1c0,1.4-0.2,2.6-0.6,3.7c-0.4,1.1-0.9,2-1.6,2.8c-0.7,0.8-1.5,1.3-2.4,1.8
		c-0.9,0.4-2,0.6-3.1,0.6s-2.2-0.2-3.1-0.6c-0.9-0.4-1.8-1-2.4-1.8c-0.7-0.8-1.2-1.7-1.6-2.8c-0.4-1.1-0.6-2.3-0.6-3.7v-0.8
		c0-1.4,0.2-2.6,0.6-3.7c0.4-1.1,0.9-2,1.6-2.8c0.7-0.8,1.5-1.4,2.4-1.8c0.9-0.4,2-0.6,3.1-0.6s2.2,0.2,3.1,0.6
		c0.9,0.4,1.8,1,2.4,1.8c0.7,0.8,1.2,1.7,1.6,2.8c0.4,1.1,0.6,2.3,0.6,3.7V2934.1z M-854.7,2933.3c0-1.9-0.3-3.3-1-4.3
		s-1.6-1.5-2.9-1.5s-2.2,0.5-2.9,1.5s-1,2.4-1,4.3v0.8c0,0.9,0.1,1.8,0.3,2.5s0.4,1.3,0.8,1.8s0.7,0.9,1.2,1.1s1,0.4,1.7,0.4
		c1.3,0,2.2-0.5,2.9-1.5s1-2.4,1-4.3L-854.7,2933.3L-854.7,2933.3z"/>
	<path class="st1" d="M-833.6,2942.7h-3.7v-7.7h-7.2v7.7h-3.7v-18h3.7v7.3h7.2v-7.3h3.7V2942.7z"/>
	<path class="st1" d="M-818.1,2935.4h-2.1v7.4h-3.7v-18h3.7v7.2h1.7l4.4-7.2h4.5l-5.6,8.5l6.1,9.5h-4.4L-818.1,2935.4z"/>
	<path class="st1" d="M-803.9,2936.4v6.4h-3.7v-18h7c1.1,0,2,0.1,2.9,0.4c0.8,0.3,1.5,0.7,2.1,1.2s1,1.2,1.3,1.9s0.5,1.5,0.5,2.4
		s-0.2,1.7-0.5,2.4s-0.7,1.3-1.3,1.8s-1.3,0.9-2.1,1.1s-1.8,0.4-2.9,0.4L-803.9,2936.4L-803.9,2936.4z M-803.9,2933.4h3.3
		c0.5,0,1-0.1,1.4-0.2c0.4-0.1,0.7-0.3,0.9-0.6s0.4-0.5,0.5-0.8s0.2-0.7,0.2-1.1c0-0.4-0.1-0.8-0.2-1.1s-0.3-0.7-0.5-1
		s-0.6-0.5-0.9-0.7c-0.4-0.2-0.8-0.2-1.4-0.2h-3.3V2933.4z"/>
	<path class="st1" d="M-783.3,2939h-6.5l-1.2,3.7h-4l6.7-18h3.4l6.8,18h-4L-783.3,2939z M-788.8,2936h4.5l-2.3-6.8L-788.8,2936z"/>
	<path class="st1" d="M-762.5,2936.7c-0.1,0.9-0.3,1.8-0.6,2.5c-0.3,0.8-0.8,1.4-1.4,2c-0.6,0.5-1.4,1-2.2,1.3
		c-0.9,0.3-1.9,0.5-3,0.5c-1.2,0-2.2-0.2-3.1-0.6c-0.9-0.4-1.7-1-2.3-1.7c-0.6-0.8-1.1-1.7-1.5-2.7c-0.3-1.1-0.5-2.3-0.5-3.6v-1.2
		c0-1.3,0.2-2.5,0.5-3.6c0.4-1.1,0.9-2,1.5-2.7c0.6-0.8,1.4-1.3,2.4-1.7c0.9-0.4,2-0.6,3.1-0.6s2.1,0.2,3,0.5s1.6,0.8,2.2,1.3
		s1.1,1.2,1.4,2c0.3,0.8,0.6,1.6,0.6,2.5h-3.7c0-0.5-0.1-1-0.3-1.4s-0.4-0.8-0.6-1c-0.3-0.3-0.6-0.5-1.1-0.6c-0.4-0.1-1-0.2-1.6-0.2
		c-1.3,0-2.2,0.5-2.8,1.4s-0.9,2.3-0.9,4.2v1.2c0,0.9,0.1,1.8,0.2,2.5c0.1,0.7,0.4,1.3,0.6,1.8c0.3,0.5,0.7,0.8,1.1,1.1
		c0.5,0.2,1,0.4,1.7,0.4c0.6,0,1.1-0.1,1.5-0.2c0.4-0.1,0.8-0.3,1.1-0.6s0.5-0.6,0.7-1s0.3-0.9,0.3-1.4h3.7V2936.7z"/>
	<path class="st1" d="M-745.2,2934.1c0,1.4-0.2,2.6-0.6,3.7c-0.4,1.1-0.9,2-1.6,2.8c-0.7,0.8-1.5,1.3-2.4,1.8
		c-0.9,0.4-2,0.6-3.1,0.6s-2.2-0.2-3.1-0.6c-0.9-0.4-1.8-1-2.4-1.8c-0.7-0.8-1.2-1.7-1.6-2.8c-0.4-1.1-0.6-2.3-0.6-3.7v-0.8
		c0-1.4,0.2-2.6,0.6-3.7c0.4-1.1,0.9-2,1.6-2.8c0.7-0.8,1.5-1.4,2.4-1.8c0.9-0.4,2-0.6,3.1-0.6s2.2,0.2,3.1,0.6
		c0.9,0.4,1.8,1,2.4,1.8c0.7,0.8,1.2,1.7,1.6,2.8c0.4,1.1,0.6,2.3,0.6,3.7V2934.1z M-749,2933.3c0-1.9-0.3-3.3-1-4.3
		s-1.6-1.5-2.9-1.5s-2.2,0.5-2.9,1.5s-1,2.4-1,4.3v0.8c0,0.9,0.1,1.8,0.3,2.5s0.4,1.3,0.8,1.8s0.7,0.9,1.2,1.1s1,0.4,1.7,0.4
		c1.3,0,2.2-0.5,2.9-1.5s1-2.4,1-4.3L-749,2933.3L-749,2933.3z"/>
	<path class="st1" d="M-730,2927.7h-5.5v15h-3.7v-15h-5.5v-3h14.7V2927.7z"/>
	<path class="st1" d="M-724.1,2931.2h3c1.1,0,2,0.1,2.9,0.4s1.6,0.7,2.2,1.2c0.6,0.5,1,1.1,1.4,1.8c0.3,0.7,0.5,1.5,0.5,2.3
		c0,0.9-0.2,1.7-0.5,2.4s-0.8,1.3-1.4,1.8c-0.6,0.5-1.3,0.9-2.2,1.2s-1.8,0.4-2.9,0.4h-6.7v-18h3.7V2931.2z M-724.1,2934.2v5.5h3
		c0.5,0,1-0.1,1.4-0.2c0.4-0.2,0.7-0.4,1-0.6c0.3-0.3,0.5-0.6,0.6-0.9c0.1-0.3,0.2-0.7,0.2-1.1c0-0.4-0.1-0.7-0.2-1.1
		c-0.1-0.3-0.3-0.6-0.6-0.8s-0.6-0.4-1-0.6c-0.4-0.1-0.8-0.2-1.4-0.2L-724.1,2934.2L-724.1,2934.2z M-709,2942.7h-3.7v-18h3.7
		V2942.7z"/>
	<path class="st1" d="M-688.6,2924.7h3.7v18h-3.7v-12l-7.2,12h-3.7v-18h3.7v12L-688.6,2924.7z"/>
	<path class="st1" d="M-669.2,2932.1c0.5,0,0.9-0.1,1.3-0.2s0.6-0.3,0.8-0.5s0.4-0.5,0.5-0.8s0.2-0.6,0.2-1c0-0.3-0.1-0.6-0.2-0.8
		c-0.1-0.3-0.3-0.5-0.5-0.7s-0.5-0.4-0.9-0.5s-0.8-0.2-1.3-0.2c-0.4,0-0.8,0-1.1,0.1s-0.6,0.2-0.9,0.4c-0.2,0.2-0.4,0.4-0.6,0.7
		c-0.1,0.3-0.2,0.6-0.2,0.9h-3.7c0-0.8,0.2-1.5,0.5-2.1s0.8-1.2,1.4-1.6c0.6-0.4,1.3-0.8,2.1-1s1.6-0.4,2.5-0.4c1,0,1.9,0.1,2.7,0.3
		s1.5,0.5,2.1,1s1,1,1.3,1.6s0.5,1.4,0.5,2.2c0,0.4-0.1,0.8-0.2,1.2s-0.3,0.7-0.6,1.1c-0.2,0.3-0.5,0.6-0.9,0.9
		c-0.3,0.3-0.7,0.5-1.2,0.7c1,0.3,1.8,0.9,2.3,1.6s0.8,1.6,0.8,2.6c0,0.8-0.2,1.6-0.5,2.2c-0.3,0.7-0.8,1.2-1.4,1.7
		c-0.6,0.5-1.3,0.8-2.2,1s-1.8,0.4-2.8,0.4c-0.5,0-1.1,0-1.6-0.1s-1.1-0.2-1.6-0.4s-1-0.4-1.4-0.7s-0.8-0.6-1.1-1s-0.6-0.8-0.8-1.3
		s-0.3-1.1-0.3-1.7h3.7c0,0.3,0.1,0.6,0.2,0.9c0.1,0.3,0.3,0.5,0.6,0.7s0.6,0.4,0.9,0.5c0.4,0.1,0.8,0.2,1.2,0.2
		c0.5,0,1-0.1,1.4-0.2c0.4-0.1,0.7-0.3,1-0.5s0.5-0.5,0.6-0.7s0.2-0.6,0.2-0.9c0-0.9-0.3-1.6-0.8-2s-1.3-0.6-2.2-0.6h-2.2v-2.9
		L-669.2,2932.1L-669.2,2932.1z"/>
	<path class="st1" d="M-643,2947.2h-3.4v-4.4h-10.9v4.4h-3.5l-0.2-7.4h1.4c0.2-0.2,0.5-0.5,0.8-0.8s0.5-0.8,0.8-1.4
		c0.2-0.6,0.5-1.3,0.6-2.2c0.2-0.9,0.3-2,0.3-3.3l0.5-7.4h11.8v15.1h2.1L-643,2947.2z M-653.4,2932.1c0,1-0.1,1.8-0.2,2.6
		c-0.1,0.8-0.3,1.5-0.4,2.1c-0.2,0.6-0.4,1.2-0.6,1.7c-0.2,0.5-0.5,0.9-0.7,1.3h6.8v-12h-4.6L-653.4,2932.1z"/>
	<path class="st1" d="M-626.2,2934.1c0,1.4-0.2,2.6-0.6,3.7c-0.4,1.1-0.9,2-1.6,2.8c-0.7,0.8-1.5,1.3-2.4,1.8
		c-0.9,0.4-2,0.6-3.1,0.6s-2.2-0.2-3.1-0.6c-0.9-0.4-1.8-1-2.4-1.8c-0.7-0.8-1.2-1.7-1.6-2.8c-0.4-1.1-0.6-2.3-0.6-3.7v-0.8
		c0-1.4,0.2-2.6,0.6-3.7s0.9-2,1.6-2.8c0.7-0.8,1.5-1.4,2.4-1.8c0.9-0.4,2-0.6,3.1-0.6s2.2,0.2,3.1,0.6c0.9,0.4,1.8,1,2.4,1.8
		c0.7,0.8,1.2,1.7,1.6,2.8s0.6,2.3,0.6,3.7V2934.1z M-630,2933.3c0-1.9-0.3-3.3-1-4.3s-1.6-1.5-2.9-1.5s-2.2,0.5-2.9,1.5
		s-1,2.4-1,4.3v0.8c0,0.9,0.1,1.8,0.3,2.5s0.4,1.3,0.8,1.8c0.3,0.5,0.7,0.9,1.2,1.1s1,0.4,1.7,0.4c1.3,0,2.2-0.5,2.9-1.5
		s1-2.4,1-4.3L-630,2933.3L-630,2933.3z"/>
	<path class="st1" d="M-619.8,2936.4v6.4h-3.7v-18h7c1.1,0,2,0.1,2.9,0.4c0.8,0.3,1.5,0.7,2.1,1.2s1,1.2,1.3,1.9s0.5,1.5,0.5,2.4
		s-0.2,1.7-0.5,2.4s-0.8,1.3-1.3,1.8c-0.6,0.5-1.3,0.9-2.1,1.1c-0.8,0.3-1.8,0.4-2.9,0.4L-619.8,2936.4L-619.8,2936.4z
		 M-619.8,2933.4h3.3c0.5,0,1-0.1,1.4-0.2c0.4-0.1,0.7-0.3,0.9-0.6c0.2-0.2,0.4-0.5,0.5-0.8s0.2-0.7,0.2-1.1c0-0.4-0.1-0.8-0.2-1.1
		c-0.1-0.4-0.3-0.7-0.5-1s-0.6-0.5-0.9-0.7c-0.4-0.2-0.8-0.2-1.4-0.2h-3.3V2933.4z"/>
	<path class="st1" d="M-592.3,2934.1c0,1.4-0.2,2.6-0.6,3.7c-0.4,1.1-0.9,2-1.6,2.8c-0.7,0.8-1.5,1.3-2.4,1.8
		c-0.9,0.4-2,0.6-3.1,0.6s-2.2-0.2-3.1-0.6c-0.9-0.4-1.8-1-2.4-1.8c-0.7-0.8-1.2-1.7-1.6-2.8c-0.4-1.1-0.6-2.3-0.6-3.7v-0.8
		c0-1.4,0.2-2.6,0.6-3.7s0.9-2,1.6-2.8c0.7-0.8,1.5-1.4,2.4-1.8c0.9-0.4,2-0.6,3.1-0.6s2.2,0.2,3.1,0.6c0.9,0.4,1.8,1,2.4,1.8
		c0.7,0.8,1.2,1.7,1.6,2.8s0.6,2.3,0.6,3.7V2934.1z M-596.1,2933.3c0-1.9-0.3-3.3-1-4.3s-1.6-1.5-2.9-1.5s-2.2,0.5-2.9,1.5
		s-1,2.4-1,4.3v0.8c0,0.9,0.1,1.8,0.3,2.5s0.4,1.3,0.8,1.8c0.3,0.5,0.7,0.9,1.2,1.1s1,0.4,1.7,0.4c1.3,0,2.2-0.5,2.9-1.5
		s1-2.4,1-4.3L-596.1,2933.3L-596.1,2933.3z"/>
	<path class="st1" d="M-589.6,2942.7v-18h6.3c1,0,2,0.1,2.8,0.3s1.5,0.5,2.1,0.9s1,0.9,1.3,1.5s0.5,1.4,0.5,2.2
		c0,0.4-0.1,0.8-0.2,1.2c-0.1,0.4-0.3,0.7-0.5,1.1c-0.2,0.3-0.5,0.6-0.8,0.9s-0.7,0.5-1.2,0.7c0.5,0.1,1,0.3,1.4,0.6
		s0.7,0.6,0.9,0.9c0.2,0.4,0.4,0.7,0.5,1.2c0.1,0.4,0.2,0.8,0.2,1.3c0,1.8-0.6,3.1-1.7,4c-1.1,0.9-2.7,1.3-4.8,1.3L-589.6,2942.7
		L-589.6,2942.7z M-585.9,2932.3h2.8c1,0,1.7-0.2,2.1-0.6c0.5-0.4,0.7-0.9,0.7-1.6c0-0.8-0.2-1.4-0.7-1.8c-0.5-0.4-1.2-0.5-2.2-0.5
		h-2.6L-585.9,2932.3L-585.9,2932.3z M-585.9,2934.9v4.9h3.2c0.5,0,0.9-0.1,1.2-0.2c0.3-0.1,0.6-0.3,0.9-0.5s0.4-0.5,0.5-0.7
		c0.1-0.3,0.2-0.6,0.2-0.9c0-0.4,0-0.7-0.1-1s-0.3-0.6-0.5-0.8s-0.5-0.4-0.8-0.5s-0.7-0.2-1.2-0.2h-3.4V2934.9z"/>
	<path class="st1" d="M-569.7,2931.2h3c1.1,0,2,0.1,2.9,0.4s1.6,0.7,2.2,1.2c0.6,0.5,1,1.1,1.4,1.8s0.5,1.5,0.5,2.3
		c0,0.9-0.2,1.7-0.5,2.4s-0.8,1.3-1.4,1.8c-0.6,0.5-1.3,0.9-2.2,1.2s-1.8,0.4-2.9,0.4h-6.7v-18h3.7V2931.2z M-569.7,2934.2v5.5h3
		c0.5,0,1-0.1,1.4-0.2c0.4-0.2,0.7-0.4,1-0.6c0.3-0.3,0.5-0.6,0.6-0.9s0.2-0.7,0.2-1.1c0-0.4-0.1-0.7-0.2-1.1s-0.3-0.6-0.6-0.8
		s-0.6-0.4-1-0.6c-0.4-0.1-0.8-0.2-1.4-0.2L-569.7,2934.2L-569.7,2934.2z"/>
	<path class="st1" d="M-549.2,2942.7v-6.5h-3l-3.3,6.5h-4l3.9-7.7c-0.9-0.5-1.6-1.1-2.1-1.9c-0.5-0.8-0.7-1.7-0.7-2.8
		c0-0.9,0.2-1.7,0.5-2.4s0.8-1.3,1.3-1.7c0.6-0.5,1.3-0.8,2.1-1.1c0.8-0.2,1.7-0.4,2.8-0.4h6.3v18L-549.2,2942.7L-549.2,2942.7z
		 M-554.7,2930.5c0,1,0.2,1.7,0.7,2.2s1.2,0.7,2.2,0.7h2.6v-5.7h-2.6c-1,0-1.8,0.2-2.2,0.7C-554.5,2928.9-554.7,2929.6-554.7,2930.5
		z"/>
</g>
</svg>
